<?xml version="1.0" encoding="utf-8"?>
<!-- Generator: Adobe Illustrator 17.0.0, SVG Export Plug-In . SVG Version: 6.00 Build 0)  -->
<!DOCTYPE svg PUBLIC "-//W3C//DTD SVG 1.1//EN" "http://www.w3.org/Graphics/SVG/1.1/DTD/svg11.dtd">
<svg version="1.1" id="Layer_1" xmlns="http://www.w3.org/2000/svg" xmlns:xlink="http://www.w3.org/1999/xlink" x="0px" y="0px"
	 width="92.452px" height="71px" viewBox="0 0 92.452 71" enable-background="new 0 0 92.452 71" xml:space="preserve">
<g>
	<path fill="#FFFFFF" d="M65.77,42.479c-0.092-0.119-0.219-0.18-0.378-0.18h-3.71c-0.372,0-0.584,0.187-0.639,0.559l-1.512,5.184
		l-1.512-5.184c-0.054-0.372-0.267-0.559-0.639-0.559h-3.71c-0.159,0-0.286,0.061-0.379,0.18c-0.093,0.12-0.113,0.247-0.06,0.379
		l3.905,13.389l-3.912,13.417c-0.081,0.373,0.065,0.559,0.438,0.559h3.71c0.374,0,0.586-0.186,0.639-0.559l7.818-26.807
		C65.884,42.726,65.864,42.599,65.77,42.479"/>
	<path fill="#FFFFFF" d="M23.67,10.858v3.55c0,0.373-0.187,0.559-0.559,0.559h-4.547v5.744h3.948c0.372,0,0.559,0.187,0.559,0.559
		v3.551c0,0.372-0.187,0.558-0.559,0.558h-3.948v12.287c0,0.373-0.187,0.559-0.559,0.559h-3.55c-0.372,0-0.558-0.186-0.558-0.559
		V10.858c0-0.372,0.186-0.559,0.558-0.559h8.657C23.483,10.299,23.67,10.486,23.67,10.858"/>
	<path fill="#FFFFFF" d="M36.674,34.114v3.55c0,0.373-0.186,0.559-0.559,0.559H30.73h-0.08h-0.04h-3.55
		c-0.373,0-0.559-0.186-0.559-0.559V10.858c0-0.372,0.186-0.559,0.559-0.559h3.55c0.373,0,0.559,0.188,0.559,0.559v22.699h4.946
		C36.488,33.557,36.674,33.742,36.674,34.114"/>
	<path fill="#FFFFFF" d="M48.879,34.114v3.55c0,0.373-0.186,0.559-0.558,0.559h-8.657c-0.373,0-0.559-0.186-0.559-0.559V10.858
		c0-0.372,0.186-0.559,0.559-0.559h8.657c0.372,0,0.558,0.188,0.558,0.559v3.551c0,0.373-0.186,0.558-0.558,0.558h-4.548v5.744
		h3.949c0.373,0,0.559,0.186,0.559,0.559v3.55c0,0.373-0.186,0.558-0.559,0.558h-3.949v8.179h4.548
		C48.694,33.557,48.879,33.742,48.879,34.114"/>
	<path fill="#FFFFFF" d="M26.356,42.419c0.612,0.267,1.143,0.625,1.596,1.078c0.452,0.453,0.811,0.984,1.077,1.595
		c0.266,0.611,0.399,1.263,0.399,1.955v3.191c0,0.372-0.173,0.612-0.519,0.717l-3.63,0.559c-0.346,0.107-0.518-0.026-0.518-0.398
		v-3.87c0-0.266-0.094-0.491-0.28-0.678c-0.185-0.185-0.413-0.279-0.678-0.279h-0.32c-0.266,0-0.491,0.094-0.677,0.279
		c-0.187,0.187-0.28,0.413-0.28,0.678v18.031c0,0.266,0.093,0.493,0.28,0.678c0.186,0.186,0.411,0.279,0.677,0.279h0.32
		c0.265,0,0.492-0.093,0.678-0.279c0.186-0.185,0.28-0.412,0.28-0.678v-5.585c0-0.373,0.172-0.505,0.518-0.4l3.63,0.479
		c0.345,0.107,0.519,0.347,0.519,0.719v4.985c0,0.693-0.133,1.343-0.399,1.956c-0.267,0.612-0.625,1.144-1.077,1.595
		c-0.453,0.453-0.984,0.812-1.596,1.078c-0.613,0.266-1.263,0.398-1.955,0.398h-1.516c-0.691,0-1.343-0.133-1.954-0.398
		c-0.612-0.266-1.143-0.625-1.596-1.078c-0.453-0.451-0.811-0.983-1.077-1.595c-0.266-0.612-0.399-1.263-0.399-1.956V47.047
		c0-0.692,0.133-1.344,0.399-1.955c0.266-0.611,0.625-1.143,1.077-1.595c0.452-0.452,0.983-0.811,1.596-1.078
		c0.611-0.265,1.263-0.398,1.954-0.398h1.516C25.093,42.021,25.743,42.154,26.356,42.419"/>
	<path fill="#FFFFFF" d="M36.728,69.665c0,0.373-0.186,0.559-0.559,0.559h-3.55c-0.373,0-0.559-0.186-0.559-0.559V42.858
		c0-0.372,0.186-0.559,0.559-0.559h3.55c0.373,0,0.559,0.187,0.559,0.559V69.665z"/>
	<path fill="#FFFFFF" d="M50.569,42.858v3.551c0,0.373-0.186,0.558-0.559,0.558h-2.832v22.698c0,0.373-0.187,0.559-0.559,0.559
		h-3.551c-0.134,0-0.259-0.053-0.379-0.16c-0.119-0.106-0.18-0.24-0.18-0.399V46.967h-2.792c-0.372,0-0.559-0.186-0.559-0.558
		v-3.551c0-0.373,0.187-0.559,0.559-0.559H50.01C50.382,42.299,50.569,42.485,50.569,42.858"/>
	<path fill="#FFFFFF" d="M65.838,30.159l-2.819-9.665l2.812-9.636c0.054-0.132,0.033-0.259-0.061-0.378
		c-0.092-0.121-0.219-0.179-0.378-0.179h-3.71c-0.372,0-0.584,0.186-0.639,0.558l-0.418,1.431L58.02,3.354
		c-0.054-0.374-0.267-0.559-0.638-0.559h-3.711c-0.16,0-0.286,0.059-0.378,0.18C53.2,3.094,53.179,3.22,53.233,3.354l5,17.14
		l-5.008,17.17c-0.08,0.374,0.067,0.559,0.438,0.559h3.71c0.373,0,0.586-0.185,0.638-0.559l2.614-8.965l0.426,1.459
		c0.054,0.375,0.266,0.559,0.639,0.559h3.71C65.772,30.717,65.918,30.533,65.838,30.159"/>
	<path fill="#FFFFFF" d="M8.483,51.626c0,0.126-0.063,0.189-0.189,0.189h-1.2c-0.126,0-0.188-0.062-0.188-0.189v-9.058
		c0-0.125,0.062-0.188,0.188-0.188h1.2c0.125,0,0.189,0.063,0.189,0.188V51.626z"/>
	<path fill="#FFFFFF" d="M13.888,42.568v9.058c0,0.126-0.063,0.189-0.189,0.189h-0.862c-0.054,0-0.106-0.018-0.155-0.054
		c-0.05-0.036-0.082-0.076-0.101-0.122l-1.428-4.461v4.448c0,0.126-0.063,0.189-0.189,0.189h-1.2c-0.125,0-0.189-0.062-0.189-0.189
		v-9.058c0-0.125,0.063-0.188,0.189-0.188h0.89c0.054,0,0.106,0.018,0.155,0.053c0.049,0.036,0.083,0.077,0.102,0.122l1.402,4.327
		v-4.314c0-0.125,0.062-0.188,0.188-0.188h1.2C13.825,42.38,13.888,42.443,13.888,42.568"/>
	<path fill="#FFFFFF" d="M4.695,54.044v1.2c0,0.125-0.063,0.189-0.189,0.189H3.55v7.668c0,0.127-0.064,0.189-0.19,0.189h-1.2
		c-0.044,0-0.087-0.018-0.127-0.054c-0.04-0.035-0.061-0.08-0.061-0.135v-7.668H1.029c-0.125,0-0.188-0.064-0.188-0.189v-1.2
		c0-0.126,0.063-0.188,0.188-0.188h3.478C4.633,53.856,4.695,53.918,4.695,54.044"/>
	<path fill="#FFFFFF" d="M9.561,54.044v9.057c0,0.127-0.063,0.189-0.188,0.189h-1.2c-0.126,0-0.188-0.062-0.188-0.189v-3.854h-0.89
		v3.854c0,0.127-0.063,0.189-0.19,0.189H5.706c-0.126,0-0.188-0.062-0.188-0.189v-9.057c0-0.126,0.062-0.188,0.188-0.188h1.199
		c0.126,0,0.19,0.062,0.19,0.188v3.625h0.89v-3.625c0-0.126,0.062-0.188,0.188-0.188h1.2C9.498,53.856,9.561,53.918,9.561,54.044"/>
	<path fill="#FFFFFF" d="M13.955,61.902v1.199c0,0.126-0.063,0.189-0.189,0.189h-2.926c-0.125,0-0.187-0.062-0.187-0.189v-9.057
		c0-0.126,0.062-0.189,0.187-0.189h2.926c0.126,0,0.189,0.063,0.189,0.189v1.2c0,0.125-0.063,0.189-0.189,0.189H12.23v1.941h1.334
		c0.126,0,0.188,0.063,0.188,0.188v1.199c0,0.127-0.062,0.189-0.188,0.189H12.23v2.763h1.536
		C13.892,61.713,13.955,61.776,13.955,61.902"/>
	<g>
		<defs>
			<path id="SVGID_1_" d="M76.42,7.42c2.095-0.106,3.771-0.885,5.531-1.753c0.19-0.094,0.437-0.149,0.709-0.162
				c0.547-0.028,1.193,0.106,1.689,0.297l0.002,0.002c0.014,0.01,0.05,0.05,0.084,0.118c0.108,0.202,0.2,0.604,0.215,0.957
				c0.01,0.171,0.002,0.332-0.02,0.452c-0.068,0.391-0.099,0.758-0.081,1.103c0.028,0.557,0.184,1.06,0.496,1.491
				c0.311,0.434,0.768,0.789,1.375,1.089c0.163,0.076,0.395,0.302,0.563,0.564c0.175,0.26,0.29,0.561,0.297,0.744
				c0.002,0.039-0.001,0.073-0.006,0.097c-0.202,1.072-0.74,2.132-1.276,3.164c-0.117,0.227-0.236,0.396-0.354,0.498
				c-0.117,0.104-0.223,0.15-0.359,0.158c-0.189,0.012-0.474-0.074-0.863-0.339c-0.615-0.416-0.957-0.879-1.181-1.414
				c-0.223-0.532-0.32-1.143-0.404-1.82c-0.134-1.055-0.646-1.905-1.368-2.466c-0.722-0.564-1.646-0.845-2.606-0.796
				c-0.584,0.029-1.18,0.181-1.753,0.462c-0.638,0.314-1.243,0.722-1.866,1.053c-0.626,0.331-1.261,0.585-1.96,0.621
				c-0.491,0.024-1.019-0.056-1.609-0.304c0.583-0.814,1.071-1.709,1.63-2.419c0.309-0.393,0.636-0.727,1.004-0.966
				c0.368-0.24,0.775-0.39,1.27-0.415c0.063-0.002,0.128-0.005,0.194-0.002c0.053,0,0.104,0,0.156,0
				C76.095,7.433,76.258,7.429,76.42,7.42 M82.635,4.996c-0.322,0.016-0.634,0.079-0.909,0.213
				c-1.758,0.867-3.354,1.602-5.332,1.702c-0.2,0.01-0.404,0.015-0.612,0.011c-0.078-0.001-0.155,0-0.23,0.004
				c-0.585,0.029-1.089,0.213-1.522,0.497c-0.65,0.425-1.144,1.059-1.599,1.735c-0.457,0.677-0.876,1.402-1.352,2.024l0.202,0.156
				l-0.112,0.229c0.774,0.384,1.486,0.518,2.141,0.484c0.81-0.043,1.52-0.333,2.174-0.68c0.654-0.348,1.257-0.753,1.853-1.045
				c0.512-0.252,1.04-0.385,1.554-0.411c0.845-0.043,1.646,0.204,2.266,0.688c0.618,0.483,1.057,1.2,1.175,2.128
				c0.088,0.685,0.187,1.34,0.441,1.954c0.254,0.613,0.673,1.174,1.366,1.64c0.436,0.292,0.812,0.442,1.175,0.426
				c0.258-0.012,0.491-0.121,0.676-0.288c0.185-0.168,0.332-0.386,0.466-0.644c0.534-1.035,1.101-2.132,1.325-3.304
				c0.014-0.072,0.017-0.145,0.014-0.217c-0.021-0.335-0.174-0.682-0.381-1c-0.21-0.314-0.467-0.593-0.766-0.742
				c-0.555-0.273-0.936-0.582-1.186-0.928c-0.248-0.347-0.374-0.74-0.399-1.22c-0.015-0.296,0.012-0.625,0.074-0.989
				c0.03-0.173,0.036-0.364,0.025-0.565c-0.016-0.304-0.068-0.622-0.157-0.892c-0.045-0.136-0.1-0.261-0.169-0.37
				c-0.071-0.106-0.158-0.209-0.302-0.265c-0.506-0.193-1.128-0.335-1.724-0.335C82.75,4.991,82.692,4.992,82.635,4.996"/>
		</defs>
		<clipPath id="SVGID_2_">
			<use xlink:href="#SVGID_1_"  overflow="visible"/>
		</clipPath>
		<defs>
			<filter id="Adobe_OpacityMaskFilter" filterUnits="userSpaceOnUse" x="70.483" y="4.146" width="17.907" height="13.465">
				<feColorMatrix  type="matrix" values="1 0 0 0 0  0 1 0 0 0  0 0 1 0 0  0 0 0 1 0"/>
			</filter>
		</defs>
		<mask maskUnits="userSpaceOnUse" x="70.483" y="4.146" width="17.907" height="13.465" id="SVGID_3_">
			<g filter="url(#Adobe_OpacityMaskFilter)">
				
					<radialGradient id="SVGID_4_" cx="-93.8178" cy="192.3539" r="0.5774" gradientTransform="matrix(12.5011 -0.6337 0.6337 12.5011 1130.3365 -2452.981)" gradientUnits="userSpaceOnUse">
					<stop  offset="0" style="stop-color:#000000"/>
					<stop  offset="0.1067" style="stop-color:#000000"/>
					<stop  offset="1" style="stop-color:#FFFFFF"/>
				</radialGradient>
				<polygon clip-path="url(#SVGID_2_)" fill="url(#SVGID_4_)" points="71.12,17.611 88.39,16.736 87.752,4.146 70.483,5.022 				
					"/>
			</g>
		</mask>
		
			<radialGradient id="SVGID_5_" cx="-93.8175" cy="192.3545" r="0.5774" gradientTransform="matrix(12.5011 -0.6337 0.6337 12.5011 1130.3287 -2452.9888)" gradientUnits="userSpaceOnUse">
			<stop  offset="0" style="stop-color:#FDCD45"/>
			<stop  offset="0.1067" style="stop-color:#FDCD45"/>
			<stop  offset="1" style="stop-color:#F4992B"/>
		</radialGradient>
		<polygon clip-path="url(#SVGID_2_)" mask="url(#SVGID_3_)" fill="url(#SVGID_5_)" points="71.12,17.611 88.39,16.736 
			87.752,4.146 70.483,5.022 		"/>
	</g>
	<g>
		<defs>
			<path id="SVGID_6_" d="M86.208,0.796l0.011,0.258c1.222-0.051,2.113,0.139,2.689,0.54c0.288,0.201,0.505,0.452,0.661,0.77
				c0.155,0.318,0.249,0.706,0.271,1.171c0.02,0.384-0.009,0.82-0.087,1.307c-0.203,1.275-0.645,2.541-1.141,3.764h-0.001
				c-0.005,0.009-0.035,0.043-0.087,0.077c-0.158,0.107-0.485,0.21-0.72,0.219c-0.089,0.005-0.165-0.004-0.204-0.016
				c-0.363-0.109-0.568-0.261-0.694-0.434c-0.127-0.174-0.185-0.385-0.198-0.638c-0.021-0.378,0.07-0.83,0.146-1.267
				c0.041-0.249,0.059-0.475,0.048-0.684c-0.018-0.424-0.17-0.786-0.441-1.066c-0.27-0.282-0.637-0.49-1.103-0.699
				c-0.67-0.3-1.298-0.403-1.887-0.373c-0.689,0.035-1.32,0.249-1.925,0.51c-0.604,0.264-1.184,0.576-1.777,0.828
				c-0.708,0.304-1.562,0.376-2.523,0.547c0.014-0.103,0.022-0.179,0.03-0.237c0.005-0.042,0.01-0.071,0.013-0.088
				c0.259-0.277,0.546-0.54,0.831-0.817c1.003-0.925,2.038-1.754,3.152-2.367c1.116-0.615,2.31-1.014,3.645-1.082
				c0.407-0.02,0.829-0.011,1.265,0.035L86.208,0.796z M84.892,0.508c-1.423,0.073-2.697,0.499-3.865,1.144
				c-1.17,0.645-2.236,1.503-3.259,2.444L77.765,4.1l-0.002,0.001c-0.285,0.278-0.587,0.554-0.869,0.86
				c-0.053,0.056-0.083,0.126-0.096,0.179c-0.021,0.082-0.026,0.154-0.041,0.268c-0.014,0.113-0.033,0.264-0.069,0.475l-0.06,0.367
				l0.363-0.073c1.061-0.219,2.063-0.26,2.978-0.644c0.622-0.266,1.204-0.579,1.782-0.83c0.577-0.25,1.146-0.438,1.746-0.469
				c0.512-0.025,1.05,0.06,1.652,0.329c0.44,0.195,0.75,0.383,0.94,0.586c0.189,0.202,0.281,0.41,0.301,0.738
				c0.009,0.162-0.006,0.352-0.042,0.574c-0.07,0.424-0.175,0.905-0.152,1.377c0.016,0.317,0.093,0.638,0.296,0.916
				c0.202,0.277,0.522,0.492,0.961,0.622c0.122,0.037,0.247,0.043,0.376,0.037c0.24-0.013,0.496-0.075,0.721-0.169
				c0.111-0.048,0.216-0.103,0.308-0.172c0.091-0.069,0.175-0.149,0.228-0.274c0.501-1.237,0.959-2.537,1.172-3.873
				c0.082-0.516,0.114-0.987,0.092-1.415c-0.025-0.518-0.13-0.976-0.322-1.369c-0.287-0.593-0.775-1.023-1.421-1.282
				c-0.642-0.256-1.437-0.353-2.391-0.316c-0.304-0.03-0.603-0.045-0.895-0.045C85.177,0.498,85.034,0.501,84.892,0.508"/>
		</defs>
		<clipPath id="SVGID_7_">
			<use xlink:href="#SVGID_6_"  overflow="visible"/>
		</clipPath>
		<defs>
			<filter id="Adobe_OpacityMaskFilter_1_" filterUnits="userSpaceOnUse" x="76.177" y="-0.198" width="14.647" height="10.311">
				<feColorMatrix  type="matrix" values="1 0 0 0 0  0 1 0 0 0  0 0 1 0 0  0 0 0 1 0"/>
			</filter>
		</defs>
		<mask maskUnits="userSpaceOnUse" x="76.177" y="-0.198" width="14.647" height="10.311" id="SVGID_8_">
			<g filter="url(#Adobe_OpacityMaskFilter_1_)">
				
					<radialGradient id="SVGID_9_" cx="-94.8443" cy="192.8246" r="0.5766" gradientTransform="matrix(10.1138 -0.5127 0.5127 10.1138 943.8834 -1993.7104)" gradientUnits="userSpaceOnUse">
					<stop  offset="0" style="stop-color:#000000"/>
					<stop  offset="0.1067" style="stop-color:#000000"/>
					<stop  offset="1" style="stop-color:#FFFFFF"/>
				</radialGradient>
				<polygon clip-path="url(#SVGID_7_)" fill="url(#SVGID_9_)" points="76.663,10.113 90.824,9.395 90.337,-0.198 76.177,0.521 				
					"/>
			</g>
		</mask>
		
			<radialGradient id="SVGID_10_" cx="-94.8443" cy="192.8246" r="0.5766" gradientTransform="matrix(10.1138 -0.5127 0.5127 10.1138 943.8834 -1993.7104)" gradientUnits="userSpaceOnUse">
			<stop  offset="0" style="stop-color:#FDCD45"/>
			<stop  offset="0.1067" style="stop-color:#FDCD45"/>
			<stop  offset="1" style="stop-color:#F4992B"/>
		</radialGradient>
		<polygon clip-path="url(#SVGID_7_)" mask="url(#SVGID_8_)" fill="url(#SVGID_10_)" points="76.663,10.113 90.824,9.395 
			90.337,-0.198 76.177,0.521 		"/>
	</g>
	<g>
		<defs>
			<path id="SVGID_11_" d="M67.533,38.114c-0.531-0.103-0.902-0.309-1.152-0.591c-0.25-0.284-0.391-0.656-0.415-1.134
				c-0.01-0.175-0.002-0.365,0.022-0.565c0.089-0.737,0.375-1.345,0.779-1.773c0.406-0.428,0.928-0.679,1.521-0.71
				c0.088-0.004,0.179-0.003,0.271,0.002c0.349,0.023,0.578,0.103,0.736,0.209c0.119,0.08,0.203,0.176,0.271,0.292
				c0.101,0.173,0.161,0.397,0.201,0.644c0.04,0.234,0.062,0.487,0.105,0.733c-0.095,0.784-0.397,1.511-0.792,2.037
				c-0.199,0.268-0.424,0.484-0.65,0.632c-0.225,0.149-0.452,0.229-0.667,0.24c-0.018,0.001-0.034,0.001-0.052,0.001
				C67.652,38.131,67.592,38.126,67.533,38.114 M68.262,32.83c-0.725,0.036-1.379,0.353-1.866,0.87
				c-0.489,0.516-0.814,1.229-0.915,2.062c-0.028,0.227-0.037,0.445-0.026,0.653c0.027,0.564,0.203,1.063,0.543,1.445
				c0.337,0.383,0.827,0.639,1.439,0.755c0.116,0.022,0.234,0.03,0.353,0.025c0.324-0.016,0.636-0.135,0.921-0.323
				c0.43-0.282,0.806-0.719,1.099-1.25c0.292-0.533,0.5-1.159,0.575-1.827l-0.254-0.029l0.251-0.047
				c-0.078-0.396-0.081-0.921-0.285-1.402c-0.103-0.239-0.267-0.468-0.518-0.634c-0.251-0.168-0.576-0.269-0.987-0.294
				c-0.064-0.005-0.125-0.006-0.187-0.006C68.357,32.828,68.309,32.828,68.262,32.83"/>
		</defs>
		<clipPath id="SVGID_12_">
			<use xlink:href="#SVGID_11_"  overflow="visible"/>
		</clipPath>
		<defs>
			<filter id="Adobe_OpacityMaskFilter_2_" filterUnits="userSpaceOnUse" x="65.15" y="32.577" width="5.528" height="6.319">
				<feColorMatrix  type="matrix" values="1 0 0 0 0  0 1 0 0 0  0 0 1 0 0  0 0 0 1 0"/>
			</filter>
		</defs>
		<mask maskUnits="userSpaceOnUse" x="65.15" y="32.577" width="5.528" height="6.319" id="SVGID_13_">
			<g filter="url(#Adobe_OpacityMaskFilter_2_)">
				
					<radialGradient id="SVGID_14_" cx="-96.4829" cy="189.2362" r="0.5781" gradientTransform="matrix(4.6671 -0.2366 0.2366 4.6671 473.4358 -870.2761)" gradientUnits="userSpaceOnUse">
					<stop  offset="0" style="stop-color:#000000"/>
					<stop  offset="0.1067" style="stop-color:#000000"/>
					<stop  offset="1" style="stop-color:#FFFFFF"/>
				</radialGradient>
				<polygon clip-path="url(#SVGID_12_)" fill="url(#SVGID_14_)" points="65.456,38.896 70.678,38.631 70.371,32.577 65.15,32.841 
									"/>
			</g>
		</mask>
		
			<radialGradient id="SVGID_15_" cx="-96.4829" cy="189.2362" r="0.5781" gradientTransform="matrix(4.6671 -0.2366 0.2366 4.6671 473.4358 -870.2761)" gradientUnits="userSpaceOnUse">
			<stop  offset="0" style="stop-color:#FDCD45"/>
			<stop  offset="0.1067" style="stop-color:#FDCD45"/>
			<stop  offset="1" style="stop-color:#F4992B"/>
		</radialGradient>
		<polygon clip-path="url(#SVGID_12_)" mask="url(#SVGID_13_)" fill="url(#SVGID_15_)" points="65.456,38.896 70.678,38.631 
			70.371,32.577 65.15,32.841 		"/>
	</g>
	<g>
		<defs>
			<path id="SVGID_16_" d="M78.315,10.796c-0.463,0.024-0.942,0.152-1.408,0.392c-0.814,0.423-1.484,1.033-2.226,1.345
				c-0.665,0.284-1.399,0.543-2.067,0.575c-0.098,0.005-0.192,0.005-0.286,0.001c-0.528-0.026-0.979-0.038-1.372-0.017
				c-0.231,0.011-0.443,0.034-0.64,0.07l-0.147,0.026l-1.649,4.9l0.41-0.058c0.258-0.036,0.51-0.09,0.755-0.185
				c0.923-0.36,1.895-0.772,2.693-1.405c0.562-0.448,1.253-0.673,1.986-0.711c1.026-0.053,2.131,0.273,3.018,0.873
				c0.888,0.599,1.552,1.461,1.743,2.466c0.129,0.661,0.237,1.158,0.377,1.57c0.207,0.618,0.504,1.044,0.981,1.431
				c0.476,0.389,1.12,0.759,2.095,1.362l0.244,0.151l0.121-0.258c0.639-1.359,1.364-2.677,1.847-4.102
				c0.023-0.072,0.029-0.14,0.025-0.205c-0.009-0.151-0.059-0.288-0.128-0.43c-0.104-0.209-0.257-0.421-0.429-0.61
				c-0.172-0.188-0.36-0.353-0.559-0.457l-0.118,0.225l-0.119,0.227c0.156,0.079,0.385,0.288,0.556,0.513
				c0.087,0.111,0.161,0.228,0.211,0.33c0.051,0.101,0.076,0.19,0.076,0.227v0.015c-0.433,1.281-1.088,2.507-1.702,3.79
				c-1.153-0.708-1.786-1.083-2.153-1.517c-0.198-0.232-0.338-0.486-0.465-0.856c-0.124-0.369-0.232-0.85-0.358-1.503
				c-0.225-1.169-0.985-2.136-1.96-2.793c-0.978-0.659-2.177-1.019-3.329-0.961c-0.82,0.041-1.619,0.298-2.278,0.821
				c-0.723,0.575-1.648,0.976-2.561,1.331c-0.071,0.027-0.146,0.051-0.223,0.072l1.28-3.801c0.13-0.018,0.271-0.03,0.425-0.039
				c0.365-0.018,0.801-0.01,1.321,0.018c0.112,0.005,0.224,0.004,0.337-0.002c0.777-0.04,1.556-0.323,2.242-0.615
				c0.848-0.366,1.524-0.984,2.261-1.361c0.403-0.208,0.812-0.316,1.2-0.335c0.64-0.033,1.227,0.169,1.67,0.549
				c0.442,0.379,0.743,0.938,0.798,1.65c0.071,0.96,0.266,1.832,0.68,2.593c0.415,0.758,1.053,1.396,1.973,1.875l0.119-0.227
				l0.117-0.226c-0.842-0.441-1.392-0.995-1.761-1.667c-0.367-0.671-0.55-1.469-0.619-2.384c-0.061-0.838-0.428-1.534-0.974-2.002
				c-0.508-0.435-1.167-0.675-1.871-0.675C78.421,10.792,78.368,10.794,78.315,10.796"/>
		</defs>
		<clipPath id="SVGID_17_">
			<use xlink:href="#SVGID_16_"  overflow="visible"/>
		</clipPath>
		<defs>
			<filter id="Adobe_OpacityMaskFilter_3_" filterUnits="userSpaceOnUse" x="67.872" y="9.969" width="17.592" height="14.439">
				<feColorMatrix  type="matrix" values="1 0 0 0 0  0 1 0 0 0  0 0 1 0 0  0 0 0 1 0"/>
			</filter>
		</defs>
		<mask maskUnits="userSpaceOnUse" x="67.872" y="9.969" width="17.592" height="14.439" id="SVGID_18_">
			<g filter="url(#Adobe_OpacityMaskFilter_3_)">
				
					<radialGradient id="SVGID_19_" cx="-93.6006" cy="191.9419" r="0.5775" gradientTransform="matrix(12.7168 -0.6446 0.6446 12.7168 1143.1808 -2483.8291)" gradientUnits="userSpaceOnUse">
					<stop  offset="0" style="stop-color:#000000"/>
					<stop  offset="0.1067" style="stop-color:#000000"/>
					<stop  offset="1" style="stop-color:#FFFFFF"/>
				</radialGradient>
				<polygon clip-path="url(#SVGID_17_)" fill="url(#SVGID_19_)" points="68.56,24.408 85.464,23.551 84.776,9.969 67.872,10.825 
									"/>
			</g>
		</mask>
		
			<radialGradient id="SVGID_20_" cx="-93.6006" cy="191.9419" r="0.5775" gradientTransform="matrix(12.7168 -0.6446 0.6446 12.7168 1143.1808 -2483.8291)" gradientUnits="userSpaceOnUse">
			<stop  offset="0" style="stop-color:#FDCD45"/>
			<stop  offset="0.1067" style="stop-color:#FDCD45"/>
			<stop  offset="1" style="stop-color:#F4992B"/>
		</radialGradient>
		<polygon clip-path="url(#SVGID_17_)" mask="url(#SVGID_18_)" fill="url(#SVGID_20_)" points="68.56,24.408 85.464,23.551 
			84.776,9.969 67.872,10.825 		"/>
	</g>
	<g>
		<defs>
			<path id="SVGID_21_" d="M81.596,24.821L81.596,24.821L81.596,24.821z M73.481,17.544c0.178-0.094,0.404-0.149,0.661-0.163
				c0.605-0.033,1.367,0.176,1.98,0.516c0.307,0.168,0.576,0.368,0.774,0.576c0.198,0.209,0.319,0.422,0.355,0.611
				c0.252,1.318,0.655,2.526,1.307,3.578c0.641,1.029,1.521,1.902,2.72,2.567c0.002,0.019,0.005,0.043,0.008,0.069
				c0.004,0.026,0.007,0.056,0.012,0.087c-0.49,0.602-1.06,1.228-1.536,1.936c-0.21,0.31-0.427,0.534-0.639,0.679
				c-0.212,0.146-0.417,0.213-0.612,0.225c-0.198,0.009-0.394-0.04-0.595-0.155c-0.199-0.117-0.401-0.301-0.591-0.559
				c-0.759-1.033-1.167-2.393-1.675-3.687c-0.134-0.335-0.379-0.665-0.689-0.986c-0.468-0.478-1.085-0.931-1.718-1.265
				c-0.634-0.331-1.275-0.55-1.832-0.526c-0.072,0.004-0.144,0.012-0.213,0.025c-0.577,0.114-1.275,0.451-2.013,0.858
				c-0.597,0.331-1.212,0.709-1.776,1.053l0.943-2.804C70.088,19.207,71.422,18.63,73.481,17.544 M74.116,16.871
				c-0.313,0.017-0.611,0.083-0.873,0.222c-2.074,1.094-3.423,1.673-5.226,2.691l-0.086,0.049l-1.147,3.409l0.14,0.304l0.12,0.261
				l0.244-0.149c0.666-0.403,1.427-0.88,2.146-1.278c0.717-0.399,1.399-0.717,1.862-0.804c0.044-0.008,0.091-0.014,0.142-0.017
				c0.263-0.014,0.615,0.059,0.991,0.204c0.565,0.217,1.187,0.589,1.698,1.006c0.512,0.416,0.912,0.885,1.048,1.243
				c0.502,1.266,0.911,2.667,1.74,3.802c0.222,0.304,0.472,0.541,0.745,0.699c0.274,0.159,0.575,0.24,0.878,0.223
				c0.3-0.015,0.599-0.123,0.876-0.314c0.276-0.189,0.535-0.463,0.773-0.815c0.469-0.701,1.061-1.342,1.581-1.991l0.077-0.094
				l-0.025-0.119c-0.018-0.078-0.024-0.162-0.036-0.248c-0.006-0.043-0.012-0.087-0.031-0.142c-0.011-0.028-0.022-0.059-0.047-0.093
				c-0.023-0.034-0.059-0.074-0.109-0.1l-0.121,0.225l-0.029,0.055l0.029-0.055l0.121-0.225c0,0-0.001,0-0.001,0h0.001
				c-1.16-0.63-1.993-1.449-2.603-2.429c-0.609-0.98-0.995-2.125-1.24-3.404c-0.062-0.322-0.244-0.61-0.486-0.867
				c-0.366-0.384-0.88-0.703-1.438-0.927c-0.51-0.203-1.055-0.327-1.565-0.327C74.214,16.868,74.164,16.869,74.116,16.871"/>
		</defs>
		<clipPath id="SVGID_22_">
			<use xlink:href="#SVGID_21_"  overflow="visible"/>
		</clipPath>
		<defs>
			<filter id="Adobe_OpacityMaskFilter_4_" filterUnits="userSpaceOnUse" x="66.183" y="16.107" width="16.263" height="13.407">
				<feColorMatrix  type="matrix" values="1 0 0 0 0  0 1 0 0 0  0 0 1 0 0  0 0 0 1 0"/>
			</filter>
		</defs>
		<mask maskUnits="userSpaceOnUse" x="66.183" y="16.107" width="16.263" height="13.407" id="SVGID_23_">
			<g filter="url(#Adobe_OpacityMaskFilter_4_)">
				
					<radialGradient id="SVGID_24_" cx="-93.6266" cy="191.6865" r="0.5773" gradientTransform="matrix(11.7414 -0.5952 0.5952 11.7414 1059.4559 -2283.4812)" gradientUnits="userSpaceOnUse">
					<stop  offset="0" style="stop-color:#000000"/>
					<stop  offset="0.1067" style="stop-color:#000000"/>
					<stop  offset="1" style="stop-color:#FFFFFF"/>
				</radialGradient>
				<polygon clip-path="url(#SVGID_22_)" fill="url(#SVGID_24_)" points="66.823,29.514 82.446,28.722 81.806,16.107 66.183,16.899 
									"/>
			</g>
		</mask>
		
			<radialGradient id="SVGID_25_" cx="-93.6264" cy="191.6872" r="0.5773" gradientTransform="matrix(11.7414 -0.5952 0.5952 11.7414 1059.4559 -2283.489)" gradientUnits="userSpaceOnUse">
			<stop  offset="0" style="stop-color:#FDCD45"/>
			<stop  offset="0.1067" style="stop-color:#FDCD45"/>
			<stop  offset="1" style="stop-color:#F4992B"/>
		</radialGradient>
		<polygon clip-path="url(#SVGID_22_)" mask="url(#SVGID_23_)" fill="url(#SVGID_25_)" points="66.823,29.514 82.446,28.722 
			81.806,16.107 66.183,16.899 		"/>
	</g>
	<g>
		<defs>
			<path id="SVGID_26_" d="M71.574,23.966c0.638-0.031,1.246,0.136,1.769,0.485c0.52,0.352,0.958,0.888,1.244,1.605
				c0.612,1.542,1.375,3.008,2.21,4.793c-0.593,0.811-1.181,1.621-1.798,2.403c-0.336,0.426-0.689,0.613-1,0.628
				c-0.204,0.01-0.401-0.048-0.6-0.191c-0.196-0.142-0.39-0.372-0.552-0.699c-0.241-0.476-0.373-1.042-0.519-1.613
				c-0.213-0.823-0.563-1.482-1.022-1.95c-0.419-0.43-0.933-0.696-1.487-0.773l-1.464-3.204c0.469-0.262,0.933-0.534,1.38-0.837
				C70.341,24.205,70.971,23.997,71.574,23.966 M71.547,23.457c-0.701,0.035-1.423,0.278-2.1,0.736
				c-0.492,0.333-1.014,0.635-1.546,0.925l-0.208,0.115l1.783,3.905l0.15,0.013c0.486,0.037,0.931,0.247,1.312,0.637
				c0.382,0.389,0.698,0.962,0.894,1.719c0.145,0.559,0.279,1.161,0.556,1.715c0.192,0.383,0.431,0.682,0.711,0.884
				c0.278,0.202,0.6,0.304,0.925,0.286c0.5-0.025,0.979-0.319,1.375-0.822c0.652-0.827,1.269-1.679,1.887-2.524l0.001-0.003
				l0.014-0.018l0.083-0.122l-0.062-0.133c-0.864-1.858-1.647-3.355-2.262-4.901c-0.319-0.803-0.822-1.428-1.435-1.841
				c-0.562-0.378-1.219-0.576-1.899-0.576C71.667,23.452,71.608,23.453,71.547,23.457"/>
		</defs>
		<clipPath id="SVGID_27_">
			<use xlink:href="#SVGID_26_"  overflow="visible"/>
		</clipPath>
		<defs>
			<filter id="Adobe_OpacityMaskFilter_5_" filterUnits="userSpaceOnUse" x="67.14" y="22.961" width="10.799" height="11.938">
				<feColorMatrix  type="matrix" values="1 0 0 0 0  0 1 0 0 0  0 0 1 0 0  0 0 0 1 0"/>
			</filter>
		</defs>
		<mask maskUnits="userSpaceOnUse" x="67.14" y="22.961" width="10.799" height="11.938" id="SVGID_28_">
			<g filter="url(#Adobe_OpacityMaskFilter_5_)">
				
					<radialGradient id="SVGID_29_" cx="-94.2663" cy="191.0213" r="0.5779" gradientTransform="matrix(8.8683 -0.4495 0.4495 8.8683 822.702 -1707.4789)" gradientUnits="userSpaceOnUse">
					<stop  offset="0" style="stop-color:#000000"/>
					<stop  offset="0.1067" style="stop-color:#000000"/>
					<stop  offset="1" style="stop-color:#FFFFFF"/>
				</radialGradient>
				<polygon clip-path="url(#SVGID_27_)" fill="url(#SVGID_29_)" points="67.719,34.899 77.939,34.381 77.36,22.961 67.14,23.48 
									"/>
			</g>
		</mask>
		
			<radialGradient id="SVGID_30_" cx="-94.2663" cy="191.0213" r="0.5779" gradientTransform="matrix(8.8683 -0.4495 0.4495 8.8683 822.702 -1707.4789)" gradientUnits="userSpaceOnUse">
			<stop  offset="0" style="stop-color:#FDCD45"/>
			<stop  offset="0.1067" style="stop-color:#FDCD45"/>
			<stop  offset="1" style="stop-color:#F4992B"/>
		</radialGradient>
		<polygon clip-path="url(#SVGID_27_)" mask="url(#SVGID_28_)" fill="url(#SVGID_30_)" points="67.719,34.899 77.939,34.381 
			77.36,22.961 67.14,23.48 		"/>
	</g>
	<g>
		<defs>
			<polygon id="SVGID_31_" points="77.111,30.857 76.879,30.735 77.093,30.874 76.879,30.735 76.876,30.739 76.759,30.921 
				76.92,31.068 77.188,31.309 77.329,30.973 77.111,30.857 77.263,30.688 77.262,30.688 			"/>
		</defs>
		<clipPath id="SVGID_32_">
			<use xlink:href="#SVGID_31_"  overflow="visible"/>
		</clipPath>
		<defs>
			<filter id="Adobe_OpacityMaskFilter_6_" filterUnits="userSpaceOnUse" x="76.727" y="30.66" width="0.634" height="0.678">
				<feColorMatrix  type="matrix" values="1 0 0 0 0  0 1 0 0 0  0 0 1 0 0  0 0 0 1 0"/>
			</filter>
		</defs>
		<mask maskUnits="userSpaceOnUse" x="76.727" y="30.66" width="0.634" height="0.678" id="SVGID_33_">
			<g filter="url(#Adobe_OpacityMaskFilter_6_)">
				
					<radialGradient id="SVGID_34_" cx="-181.6937" cy="164.8379" r="0.5773" gradientTransform="matrix(0.3621 -0.0184 0.0184 0.3621 139.8502 -32.1531)" gradientUnits="userSpaceOnUse">
					<stop  offset="0" style="stop-color:#000000"/>
					<stop  offset="0.1067" style="stop-color:#000000"/>
					<stop  offset="1" style="stop-color:#FFFFFF"/>
				</radialGradient>
				<polygon clip-path="url(#SVGID_32_)" fill="url(#SVGID_34_)" points="76.76,31.338 77.361,31.308 77.327,30.66 76.727,30.69 
									"/>
			</g>
		</mask>
		
			<radialGradient id="SVGID_35_" cx="-181.6938" cy="164.8382" r="0.5773" gradientTransform="matrix(0.3621 -0.0184 0.0184 0.3621 139.8502 -32.1536)" gradientUnits="userSpaceOnUse">
			<stop  offset="0" style="stop-color:#FDCD45"/>
			<stop  offset="0.1067" style="stop-color:#FDCD45"/>
			<stop  offset="1" style="stop-color:#F4992B"/>
		</radialGradient>
		<polygon clip-path="url(#SVGID_32_)" mask="url(#SVGID_33_)" fill="url(#SVGID_35_)" points="76.76,31.338 77.361,31.308 
			77.327,30.66 76.727,30.69 		"/>
	</g>
	<g>
		<defs>
			<path id="SVGID_36_" d="M77.045,30.94l0.03-0.051L77.045,30.94z M76.974,30.793L76.974,30.793l-0.041,0.015L76.974,30.793z
				 M77.16,30.463c-0.054,0.003-0.087,0.019-0.109,0.03c-0.042,0.024-0.054,0.039-0.065,0.05l-0.031,0.039l-0.041,0.075
				c-0.015,0.029-0.032,0.067-0.053,0.113l0.074,0.041c0.014,0.035,0.044,0.09,0.11,0.129l0.03-0.051l0.011-0.02l-0.011,0.02
				l-0.03,0.051c0.045,0.026,0.1,0.036,0.14,0.033c0.013,0,0.025-0.002,0.035-0.004l0.086,0.047
				c0.032-0.049,0.058-0.094,0.076-0.132l0.023-0.055l0.012-0.032l0.006-0.026c0.001-0.013,0.007-0.026,0.005-0.065
				c-0.003-0.024-0.002-0.058-0.036-0.119c-0.018-0.03-0.047-0.066-0.093-0.091c-0.039-0.023-0.087-0.033-0.125-0.033
				C77.169,30.463,77.164,30.463,77.16,30.463"/>
		</defs>
		<clipPath id="SVGID_37_">
			<use xlink:href="#SVGID_36_"  overflow="visible"/>
		</clipPath>
		<defs>
			<filter id="Adobe_OpacityMaskFilter_7_" filterUnits="userSpaceOnUse" x="76.832" y="30.433" width="0.626" height="0.611">
				<feColorMatrix  type="matrix" values="1 0 0 0 0  0 1 0 0 0  0 0 1 0 0  0 0 0 1 0"/>
			</filter>
		</defs>
		<mask maskUnits="userSpaceOnUse" x="76.832" y="30.433" width="0.626" height="0.611" id="SVGID_38_">
			<g filter="url(#Adobe_OpacityMaskFilter_7_)">
				
					<radialGradient id="SVGID_39_" cx="-157.774" cy="171.8429" r="0.5785" gradientTransform="matrix(0.4888 -0.0248 0.0248 0.4888 150.0028 -57.1658)" gradientUnits="userSpaceOnUse">
					<stop  offset="0" style="stop-color:#000000"/>
					<stop  offset="0.1067" style="stop-color:#000000"/>
					<stop  offset="1" style="stop-color:#FFFFFF"/>
				</radialGradient>
				<polygon clip-path="url(#SVGID_37_)" fill="url(#SVGID_39_)" points="76.862,31.044 77.458,31.015 77.428,30.433 76.832,30.463 
									"/>
			</g>
		</mask>
		
			<radialGradient id="SVGID_40_" cx="-157.774" cy="171.8429" r="0.5785" gradientTransform="matrix(0.4888 -0.0248 0.0248 0.4888 150.0028 -57.1658)" gradientUnits="userSpaceOnUse">
			<stop  offset="0" style="stop-color:#FDCD45"/>
			<stop  offset="0.1067" style="stop-color:#FDCD45"/>
			<stop  offset="1" style="stop-color:#F4992B"/>
		</radialGradient>
		<polygon clip-path="url(#SVGID_37_)" mask="url(#SVGID_38_)" fill="url(#SVGID_40_)" points="76.862,31.044 77.458,31.015 
			77.428,30.433 76.832,30.463 		"/>
	</g>
	<g>
		<defs>
			<path id="SVGID_41_" d="M72.277,43.438L72.277,43.438L72.277,43.438z M71.423,41.499c0.119,0.674,0.242,1.347,0.349,2.018v-0.001
				l0.004,0.039c0.003,0.046-0.003,0.104-0.011,0.171l-0.059-0.005l-0.021,0.254c-0.028,0.35-0.053,0.698-0.084,1.043
				c-0.049,0.574-0.121,1.1-0.284,1.45c-0.082,0.177-0.181,0.306-0.305,0.396c-0.125,0.09-0.281,0.148-0.51,0.162
				c-0.245,0.013-0.571-0.035-0.988-0.172c-0.124-0.041-0.253-0.053-0.379-0.046c-0.173,0.01-0.345,0.05-0.516,0.106l1.777-5.288
				C70.727,41.581,71.076,41.55,71.423,41.499 M71.63,41.205l-0.25,0.045L71.63,41.205z M71.583,40.954
				c-0.441,0.084-0.933,0.114-1.419,0.19l-0.151,0.025l-2.263,6.733l0.563-0.297c0.298-0.159,0.621-0.278,0.848-0.288
				c0.079-0.003,0.145,0.004,0.194,0.02c0.457,0.15,0.841,0.215,1.173,0.197c0.309-0.015,0.574-0.104,0.786-0.258
				c0.316-0.232,0.491-0.582,0.602-0.962c0.107-0.383,0.155-0.812,0.194-1.251c0.024-0.265,0.045-0.529,0.065-0.794l0.048,0.004
				l0.02-0.253c0.008-0.125,0.052-0.291,0.043-0.492c-0.001-0.03-0.004-0.06-0.009-0.091v0c-0.121-0.764-0.262-1.522-0.394-2.277
				l-0.045-0.254L71.583,40.954z"/>
		</defs>
		<clipPath id="SVGID_42_">
			<use xlink:href="#SVGID_41_"  overflow="visible"/>
		</clipPath>
		<defs>
			<filter id="Adobe_OpacityMaskFilter_8_" filterUnits="userSpaceOnUse" x="67.397" y="40.677" width="5.252" height="7.455">
				<feColorMatrix  type="matrix" values="1 0 0 0 0  0 1 0 0 0  0 0 1 0 0  0 0 0 1 0"/>
			</filter>
		</defs>
		<mask maskUnits="userSpaceOnUse" x="67.397" y="40.677" width="5.252" height="7.455" id="SVGID_43_">
			<g filter="url(#Adobe_OpacityMaskFilter_8_)">
				
					<radialGradient id="SVGID_44_" cx="-96.2646" cy="188.1671" r="0.5775" gradientTransform="matrix(5.0639 -0.2567 0.2567 5.0639 509.1257 -933.1746)" gradientUnits="userSpaceOnUse">
					<stop  offset="0" style="stop-color:#000000"/>
					<stop  offset="0.1067" style="stop-color:#000000"/>
					<stop  offset="1" style="stop-color:#FFFFFF"/>
				</radialGradient>
				<polygon clip-path="url(#SVGID_42_)" fill="url(#SVGID_44_)" points="67.762,48.132 72.649,47.884 72.283,40.677 67.397,40.924 
									"/>
			</g>
		</mask>
		
			<radialGradient id="SVGID_45_" cx="-96.2646" cy="188.1671" r="0.5775" gradientTransform="matrix(5.0639 -0.2567 0.2567 5.0639 509.1257 -933.1746)" gradientUnits="userSpaceOnUse">
			<stop  offset="0" style="stop-color:#FDCD45"/>
			<stop  offset="0.1067" style="stop-color:#FDCD45"/>
			<stop  offset="1" style="stop-color:#F4992B"/>
		</radialGradient>
		<polygon clip-path="url(#SVGID_42_)" mask="url(#SVGID_43_)" fill="url(#SVGID_45_)" points="67.762,48.132 72.649,47.884 
			72.283,40.677 67.397,40.924 		"/>
	</g>
	<g>
		<defs>
			<path id="SVGID_46_" d="M69.125,48.733c-0.545,0.028-1.09,0.152-1.526,0.41l0,0c-0.076,0.045-0.155,0.088-0.237,0.132
				l-0.089,0.048l-2.032,6.042l0.476-0.147c0.554-0.17,1.096-0.279,1.668-0.309c0.521-0.027,1.07,0.014,1.682,0.141
				c0.171,0.035,0.332,0.049,0.481,0.042c0.383-0.016,0.695-0.191,0.901-0.442c0.311-0.377,0.431-0.884,0.518-1.391
				c0.086-0.505,0.132-1.021,0.225-1.386c0.057-0.224,0.153-0.502,0.232-0.798c0.081-0.295,0.146-0.609,0.132-0.925
				c-0.013-0.284-0.102-0.577-0.317-0.815c-0.214-0.24-0.535-0.411-0.973-0.51l-0.057,0.249l-0.058,0.249
				c0.371,0.085,0.583,0.214,0.707,0.352c0.123,0.139,0.176,0.297,0.187,0.5c0.012,0.224-0.038,0.493-0.113,0.765
				c-0.074,0.274-0.171,0.55-0.235,0.809c-0.072,0.287-0.114,0.61-0.16,0.938c-0.065,0.49-0.144,0.991-0.301,1.341
				c-0.078,0.175-0.172,0.311-0.282,0.4c-0.111,0.089-0.24,0.144-0.431,0.155c-0.1,0.006-0.217-0.004-0.353-0.031
				c-0.649-0.136-1.245-0.181-1.811-0.152c-0.455,0.023-0.892,0.094-1.321,0.201l1.654-4.922c0.056-0.03,0.111-0.062,0.169-0.094
				l0,0c0.331-0.2,0.808-0.315,1.29-0.339c0.349-0.018,0.701,0.011,1,0.079l0.058-0.249l0.057-0.249
				c-0.285-0.064-0.596-0.098-0.912-0.098C69.277,48.727,69.201,48.73,69.125,48.733"/>
		</defs>
		<clipPath id="SVGID_47_">
			<use xlink:href="#SVGID_46_"  overflow="visible"/>
		</clipPath>
		<defs>
			<filter id="Adobe_OpacityMaskFilter_9_" filterUnits="userSpaceOnUse" x="64.905" y="48.408" width="7.001" height="7.278">
				<feColorMatrix  type="matrix" values="1 0 0 0 0  0 1 0 0 0  0 0 1 0 0  0 0 0 1 0"/>
			</filter>
		</defs>
		<mask maskUnits="userSpaceOnUse" x="64.905" y="48.408" width="7.001" height="7.278" id="SVGID_48_">
			<g filter="url(#Adobe_OpacityMaskFilter_9_)">
				
					<radialGradient id="SVGID_49_" cx="-95.4435" cy="187.4572" r="0.5774" gradientTransform="matrix(5.6213 -0.2849 0.2849 5.6213 551.4679 -1028.9535)" gradientUnits="userSpaceOnUse">
					<stop  offset="0" style="stop-color:#000000"/>
					<stop  offset="0.1067" style="stop-color:#000000"/>
					<stop  offset="1" style="stop-color:#FFFFFF"/>
				</radialGradient>
				<polygon clip-path="url(#SVGID_47_)" fill="url(#SVGID_49_)" points="65.256,55.686 71.906,55.348 71.554,48.408 64.905,48.745 
									"/>
			</g>
		</mask>
		
			<radialGradient id="SVGID_50_" cx="-95.4435" cy="187.4572" r="0.5774" gradientTransform="matrix(5.6213 -0.2849 0.2849 5.6213 551.4679 -1028.9535)" gradientUnits="userSpaceOnUse">
			<stop  offset="0" style="stop-color:#FDCD45"/>
			<stop  offset="0.1067" style="stop-color:#FDCD45"/>
			<stop  offset="1" style="stop-color:#F4992B"/>
		</radialGradient>
		<polygon clip-path="url(#SVGID_47_)" mask="url(#SVGID_48_)" fill="url(#SVGID_50_)" points="65.256,55.686 71.906,55.348 
			71.554,48.408 64.905,48.745 		"/>
	</g>
	<g>
		<defs>
			<path id="SVGID_51_" d="M67.267,56.026c-0.624,0.033-1.248,0.283-1.782,0.527c-0.217,0.1-0.426,0.187-0.629,0.26l-0.115,0.042
				l-2.212,6.578l0.257,0.074c0.268,0.078,0.548,0.109,0.838,0.094c0.527-0.026,1.083-0.202,1.679-0.516
				c1.052-0.557,1.87-1.309,2.512-2.183c0.643-0.875,1.113-1.87,1.482-2.925c0.091-0.258,0.13-0.49,0.12-0.702
				c-0.012-0.239-0.094-0.453-0.222-0.617c-0.195-0.247-0.471-0.382-0.749-0.471c-0.279-0.087-0.571-0.126-0.827-0.153l-0.026,0.254
				l-0.026,0.253c0.322,0.034,0.682,0.091,0.935,0.213c0.127,0.06,0.225,0.134,0.29,0.218c0.065,0.086,0.107,0.183,0.115,0.329
				c0.006,0.128-0.017,0.295-0.091,0.506c-0.358,1.021-0.809,1.971-1.412,2.792c-0.603,0.82-1.358,1.515-2.34,2.033
				c-0.549,0.29-1.034,0.436-1.464,0.458c-0.143,0.008-0.277,0-0.41-0.018l1.957-5.822c0.181-0.069,0.364-0.146,0.553-0.234
				c0.512-0.236,1.092-0.457,1.594-0.48c0.095-0.006,0.186-0.003,0.273,0.005l0.026-0.253l0.026-0.255
				c-0.075-0.007-0.151-0.01-0.228-0.01C67.349,56.023,67.308,56.024,67.267,56.026"/>
		</defs>
		<clipPath id="SVGID_52_">
			<use xlink:href="#SVGID_51_"  overflow="visible"/>
		</clipPath>
		<defs>
			<filter id="Adobe_OpacityMaskFilter_10_" filterUnits="userSpaceOnUse" x="62.145" y="55.673" width="7.665" height="8.292">
				<feColorMatrix  type="matrix" values="1 0 0 0 0  0 1 0 0 0  0 0 1 0 0  0 0 0 1 0"/>
			</filter>
		</defs>
		<mask maskUnits="userSpaceOnUse" x="62.145" y="55.673" width="7.665" height="8.292" id="SVGID_53_">
			<g filter="url(#Adobe_OpacityMaskFilter_10_)">
				
					<radialGradient id="SVGID_54_" cx="-94.6321" cy="187.0403" r="0.5777" gradientTransform="matrix(6.3021 -0.3194 0.3194 6.3021 602.5807 -1149.187)" gradientUnits="userSpaceOnUse">
					<stop  offset="0" style="stop-color:#000000"/>
					<stop  offset="0.1067" style="stop-color:#000000"/>
					<stop  offset="1" style="stop-color:#FFFFFF"/>
				</radialGradient>
				<polygon clip-path="url(#SVGID_52_)" fill="url(#SVGID_54_)" points="62.546,63.965 69.81,63.597 69.409,55.673 62.145,56.042 
									"/>
			</g>
		</mask>
		
			<radialGradient id="SVGID_55_" cx="-94.6333" cy="187.039" r="0.5774" gradientTransform="matrix(6.3021 -0.3194 0.3194 6.3021 602.5885 -1149.1791)" gradientUnits="userSpaceOnUse">
			<stop  offset="0" style="stop-color:#FDCD45"/>
			<stop  offset="0.1067" style="stop-color:#FDCD45"/>
			<stop  offset="1" style="stop-color:#F4992B"/>
		</radialGradient>
		<polygon clip-path="url(#SVGID_52_)" mask="url(#SVGID_53_)" fill="url(#SVGID_55_)" points="62.546,63.965 69.81,63.597 
			69.409,55.673 62.145,56.042 		"/>
	</g>
	<g>
		<defs>
			<path id="SVGID_56_" d="M91.31,5.736c-0.014,0.361-0.073,0.717-0.11,1.075c-0.062,0.356-0.112,0.711-0.195,1.063
				c-0.15,0.703-0.353,1.396-0.589,2.076c-0.226,0.684-0.498,1.352-0.782,2.017c-0.145,0.332-0.29,0.663-0.445,0.99
				c-0.075,0.163-0.153,0.326-0.232,0.506c-0.075,0.176-0.145,0.354-0.205,0.533c-0.253,0.717-0.412,1.413-0.661,2.086
				c-0.23,0.684-0.486,1.358-0.75,2.031c-1.084,2.678-2.41,5.255-3.881,7.751c-1.461,2.509-3.048,4.934-4.635,7.399
				c-0.789,1.271-1.446,2.619-1.979,4.009c-0.528,1.39-0.953,2.812-1.295,4.247c-0.338,1.435-0.608,2.88-0.858,4.319
				c-0.246,1.447-0.487,2.867-0.766,4.299c-0.273,1.427-0.578,2.852-0.869,4.281l-0.438,2.145c-0.144,0.696-0.345,1.381-0.611,2.041
				c-0.524,1.323-1.335,2.533-2.369,3.534c-0.518,0.5-1.089,0.946-1.694,1.344c-0.299,0.214-0.619,0.365-0.926,0.587
				c-0.285,0.236-0.546,0.486-0.827,0.72c0.297-0.212,0.581-0.445,0.875-0.653c0.299-0.184,0.652-0.324,0.963-0.514
				c0.639-0.359,1.249-0.782,1.813-1.26c1.124-0.963,2.034-2.189,2.656-3.546c0.311-0.68,0.551-1.391,0.729-2.116l0.524-2.125
				c0.351-1.415,0.685-2.837,1.005-4.265c0.16-0.714,0.313-1.428,0.46-2.146c0.146-0.72,0.274-1.438,0.412-2.153
				c0.274-1.426,0.565-2.847,0.92-4.246c0.357-1.397,0.767-2.774,1.286-4.108c0.518-1.331,1.154-2.612,1.908-3.815
				c1.554-2.451,3.158-4.912,4.604-7.462c1.436-2.558,2.768-5.193,3.779-7.962c0.249-0.694,0.492-1.39,0.705-2.094
				c0.236-0.703,0.388-1.436,0.591-2.105c0.102-0.344,0.225-0.642,0.372-0.991c0.145-0.338,0.28-0.681,0.414-1.024
				c0.261-0.688,0.513-1.381,0.713-2.092c0.206-0.709,0.379-1.428,0.492-2.159c0.069-0.364,0.103-0.732,0.146-1.098
				c0.022-0.37,0.059-0.738,0.05-1.107c0.013-0.737-0.059-1.474-0.181-2.198l-0.105-0.539l-0.139-0.533l-0.069-0.265l-0.088-0.261
				l-0.174-0.519C91.247,2.837,91.414,4.296,91.31,5.736"/>
		</defs>
		<clipPath id="SVGID_57_">
			<use xlink:href="#SVGID_56_"  overflow="visible"/>
		</clipPath>
		<defs>
			<filter id="Adobe_OpacityMaskFilter_11_" filterUnits="userSpaceOnUse" x="62.988" y="0.146" width="31.837" height="65.927">
				<feColorMatrix  type="matrix" values="1 0 0 0 0  0 1 0 0 0  0 0 1 0 0  0 0 0 1 0"/>
			</filter>
		</defs>
		<mask maskUnits="userSpaceOnUse" x="62.988" y="0.146" width="31.837" height="65.927" id="SVGID_58_">
			<g filter="url(#Adobe_OpacityMaskFilter_11_)">
				
					<radialGradient id="SVGID_59_" cx="-91.7987" cy="192.2884" r="0.5775" gradientTransform="matrix(41.723 -2.1149 -2.1149 -41.723 4315.6001 7861.8169)" gradientUnits="userSpaceOnUse">
					<stop  offset="0" style="stop-color:#000000"/>
					<stop  offset="0.1067" style="stop-color:#000000"/>
					<stop  offset="1" style="stop-color:#FFFFFF"/>
				</radialGradient>
				<polygon clip-path="url(#SVGID_57_)" fill="url(#SVGID_59_)" points="62.988,1.595 91.557,0.146 94.825,64.626 66.256,66.073 
									"/>
			</g>
		</mask>
		
			<radialGradient id="SVGID_60_" cx="-91.7987" cy="192.2884" r="0.5775" gradientTransform="matrix(41.723 -2.1149 -2.1149 -41.723 4315.6001 7861.8169)" gradientUnits="userSpaceOnUse">
			<stop  offset="0" style="stop-color:#FDCD45"/>
			<stop  offset="0.1067" style="stop-color:#FDCD45"/>
			<stop  offset="1" style="stop-color:#F4992B"/>
		</radialGradient>
		<polygon clip-path="url(#SVGID_57_)" mask="url(#SVGID_58_)" fill="url(#SVGID_60_)" points="62.988,1.595 91.557,0.146 
			94.825,64.626 66.256,66.073 		"/>
	</g>
</g>
</svg>
