<?xml version="1.0" encoding="utf-8"?>
<!-- Generator: Adobe Illustrator 17.0.0, SVG Export Plug-In . SVG Version: 6.00 Build 0)  -->
<!DOCTYPE svg PUBLIC "-//W3C//DTD SVG 1.1//EN" "http://www.w3.org/Graphics/SVG/1.1/DTD/svg11.dtd">
<svg version="1.1" id="Layer_1" xmlns="http://www.w3.org/2000/svg" xmlns:xlink="http://www.w3.org/1999/xlink" x="0px" y="0px"
	 width="163.834px" height="29.599px" viewBox="0 0 163.834 29.599" enable-background="new 0 0 163.834 29.599"
	 xml:space="preserve">
<g>
	<path fill-rule="evenodd" clip-rule="evenodd" fill="#FFFFFF" d="M160.246,4.452c0-0.862,0.7-1.559,1.561-1.559
		c0.862,0,1.559,0.697,1.559,1.559c0,0.861-0.697,1.561-1.559,1.561C160.946,6.012,160.246,5.313,160.246,4.452 M161.807,5.67
		c0.674,0,1.218-0.545,1.218-1.218c0-0.671-0.544-1.215-1.218-1.215c-0.669,0-1.216,0.544-1.216,1.215
		C160.59,5.125,161.138,5.67,161.807,5.67"/>
	<path fill-rule="evenodd" clip-rule="evenodd" fill="#FFFFFF" d="M161.548,5.301h-0.384V3.648h0.695
		c0.146,0,0.298,0.004,0.424,0.086c0.136,0.089,0.21,0.249,0.21,0.41c0,0.189-0.11,0.363-0.286,0.427l0.304,0.73h-0.428
		l-0.255-0.652h-0.28V5.301z M161.548,4.366h0.215c0.078,0,0.164,0.006,0.233-0.035c0.063-0.039,0.097-0.116,0.097-0.188
		c0-0.066-0.037-0.135-0.091-0.169c-0.068-0.042-0.177-0.032-0.25-0.032h-0.203V4.366z"/>
	<path fill-rule="evenodd" clip-rule="evenodd" fill="#FFFFFF" d="M115.65,4.452c0-0.861,0.698-1.558,1.558-1.558
		c0.861,0,1.56,0.697,1.56,1.558c0,0.86-0.699,1.559-1.56,1.559C116.348,6.01,115.65,5.312,115.65,4.452 M117.208,5.669
		c0.671,0,1.216-0.544,1.216-1.217c0-0.67-0.545-1.215-1.216-1.215c-0.672,0-1.214,0.545-1.214,1.215
		C115.994,5.125,116.535,5.669,117.208,5.669"/>
	<path fill-rule="evenodd" clip-rule="evenodd" fill="#FFFFFF" d="M116.948,5.301h-0.384V3.65h0.694
		c0.148,0,0.297,0.002,0.426,0.085c0.133,0.089,0.207,0.249,0.207,0.411c0,0.188-0.109,0.362-0.285,0.426l0.304,0.729h-0.429
		l-0.252-0.652h-0.282V5.301z M116.948,4.366h0.215c0.078,0,0.163,0.006,0.234-0.035c0.062-0.039,0.095-0.116,0.095-0.188
		c0-0.066-0.036-0.134-0.092-0.167c-0.068-0.042-0.177-0.032-0.249-0.032h-0.203V4.366z"/>
	<path fill-rule="evenodd" clip-rule="evenodd" fill="#FFFFFF" d="M159.404,23.351c-0.867,1.175-1.991,2.373-3.257,3.218
		c-6.557-0.094-12.577-1.878-18.97-2.183c-0.212-0.189-0.423-0.4-0.492-0.682c4.989-0.868,10.048-0.376,14.989-0.071
		c2.577,0.118,5.294-0.047,7.752-0.515L159.404,23.351z M149.591,26.474c1.896,0.21,3.816,0.376,5.714,0.611
		c-3.957,2.77-10.259,2.817-14.357,0.398c-1.125-0.705-2.319-1.455-3.209-2.513c0.047-0.141,0.28-0.023,0.421-0.093l2.716,0.234
		L149.591,26.474z M149.469,4.557l0.775-0.165c0,0-1.171-2.63-1.664-3.968c0.423-0.024,0.82,0,1.195,0.094
		c0.586,0.993,1.637,2.959,1.637,2.959s1.828-1.033,2.766-1.526c0.282,0.047,0.562,0.235,0.772,0.446l-2.805,2.494l0.823,2.327
		c0,0,1.982-2.801,2.967-4.139c0.35,0.047,0.633,0.352,0.843,0.611c-0.398,0.727-1.009,1.408-1.312,2.111
		c1.196,0.096,2.389,0.049,3.559,0.142c0.306,0.352,0.656,0.752,0.798,1.197l-2.975,0.234l-1.415,2.459l1.925-0.428
		c0,0,1.502-0.624,3.074-1.232c0.281,0.374,0.445,0.774,0.561,1.22l-3.206,1.293l-2.858,0.609c-0.422,0.47-0.657,1.009-0.984,1.502
		c2.552-0.468,5.036-1.29,7.613-1.806c1.147,3.873,0.491,8.239-1.593,11.504c-6.957,1.761-14.334-0.47-21.524,0.494l-2.084,0.257
		c-1.477-1.809-2.225-4.016-2.623-6.314c-0.351-2.513-0.071-5.238,0.842-7.467c0.21-0.031,3.382-0.314,3.382-0.314l-1.952-2.363
		c0.071-0.398,0.422-0.705,0.68-1.033c1.017,1.068,2.927,3.241,2.927,3.241l1.077-0.094l-3.35-3.827
		c0.328-0.517,0.892-1.058,1.382-1.41l2.834,0.516c0,0-0.023-1.525,0.025-2.369c0.585-0.33,1.24-0.61,1.874-0.729
		c0.562,1.009,0.983,2.09,1.594,3.098c0.724-1.173,1.356-2.488,2.013-3.756c0.069-0.045,0.21-0.094,0.304-0.024L149.469,4.557z
		 M147.362,3.195l-1.505,2.861l0.896,2.939l1.314-0.924l0.349-2.457C148.065,4.792,147.736,3.946,147.362,3.195 M142.982,3.36v1.432
		l0.702,0.164C143.522,4.392,143.239,3.875,142.982,3.36 M139.305,5.074l2.25,2.523V5.706L139.305,5.074z M150.723,5.743
		l-0.656,0.437l0.137,0.487l0.6-0.557L150.723,5.743z M143.054,6.367l0.092,2.651l1.007-2.301L143.054,6.367z M155.289,7.475
		l-0.947,0.111l-1.487,2.359l0.963-0.029L155.289,7.475z M149.445,9.206l0.118,2.723l2.037-2.605
		c0.182-0.193,0.244-0.546,0.244-0.546l-0.389-1.23L149.445,9.206z M145.045,8.853l-0.635,1.267l1.22,1.387
		C145.464,10.592,145.276,9.723,145.045,8.853 M147.901,10.004l-0.782,0.381l0.048,1.087l0.641,0.222L147.901,10.004z
		 M139.767,10.143l-1.095,1.692l2.228,0.863l1.849-1.614l-0.703-0.751L139.767,10.143z M135.189,10.48l1.934,0.898l0.605-1.008
		L135.189,10.48z M151.835,11.741l-1.03,1.691l1.171-0.107l1.047-1.733L151.835,11.741z M143.967,12.093l-3.514,2.889l-1.686,0.071
		c0,0,0.681-0.766,0.917-1.189c-0.609-0.282-1.29-0.572-1.923-0.761l-1.243,1.668c-0.398,0.047-0.843,0-1.145,0.141
		c-0.096,1.386,0.208,2.677,0.466,3.968c0.117,0.329,0.211,0.893,0.702,0.846c3.467,0,6.723,0.54,10.143,0.891v-5.259
		c-0.164-0.353-0.619-0.985-0.854-1.267l-1.584,0.939l-2.903,0.023c-0.024-0.048,2.389-1.385,3.49-2.112
		C144.529,12.634,144.34,12.282,143.967,12.093 M135.558,12.165c-0.211,0.468-0.186,1.149-0.141,1.643
		c0.281-0.447,0.953-1.337,0.953-1.337L135.558,12.165z M160.29,12.868l-1.241,0.352c0.327,0.658,1.078,1.972,1.078,1.972
		l-1.501,0.048l-1.333-1.596c-0.657,0.142-2.146,0.475-2.146,0.475l0.6,1.121l-1.079,0.128l-0.841-1.09c0,0-3.068,0.891-4.568,1.362
		l-0.093,0.139c0.023,1.691,0.139,3.357,0.328,4.977l0.14,0.353c2.857,0.54,5.739,0.681,8.761,0.845l0.28-0.117
		c0.819-1.174,1.289-2.488,1.735-3.827C160.876,16.462,160.992,14.325,160.29,12.868"/>
	<path fill-rule="evenodd" clip-rule="evenodd" fill="#FFFFFF" d="M100.889,25.238c0-0.33-0.084-9.564-0.084-10.189
		c0-0.768-1.161-1.175-1.214-1.53c-0.062-0.439,0.34-0.687,0.743-0.961c0.406-0.271,3.091-1.375,3.882-1.684
		c0.794-0.311,1.271,0.395,1.365,0.692c0.097,0.3,0.398,0.318,0.585,0.175c0.198-0.144,0.625-1.098,2.123-1.098
		c2.279,0,3.594,3.246,3.944,4.361c0.344,1.113,1.449,7.518,1.439,10.307c-0.004,1.043,0.304,1.256,0.826,1.844
		c0.533,0.59-0.2,1.257-0.713,1.257c-0.513,0-4.547,0.044-4.985,0.006c-0.442-0.034-0.821-0.126-1.005-0.641
		c-0.182-0.514,0.215-0.705,0.576-0.967c0.743-0.532,0.526-2.541,0.39-4.114c-0.136-1.573-0.94-5.691-1.43-6.81
		c-0.273-0.629-0.69-1.233-1.135-1.233c-0.437,0-0.57,0.684-0.57,1.163c0,0.48,0.015,8.531,0,9.643
		c-0.012,1.113,0.697,1.516,0.939,1.708c0.502,0.398,0.009,1.247-0.694,1.244c-0.476-0.005-4.249-0.023-4.531,0.002
		c-0.288,0.025-1.152-0.082-1.372-0.266c-0.22-0.183-0.442-0.191-0.626-0.047c-0.182,0.149-0.695,0.56-1.829,0.708
		c-1.136,0.148-2.264-0.974-2.54-1.217c-0.278-0.243-0.967-0.191-1.361,0.225c-0.821,0.857-2.43,1.149-3.262,1.052
		c-2.81-0.322-4.96-2.957-4.21-6.583c0.501-2.41,3.676-4.288,4.628-4.656c0.398-0.191,0.804-0.255,1.226-0.372
		c0.899-0.246,0.849-0.581,0.933-1.144c0.137-0.949-0.212-1.771-0.621-2.467c-0.408-0.696-1.585-0.597-1.94-0.559
		c-0.359,0.036-0.562,0.263-0.377,0.444c0.184,0.186,0.618,0.811,0.702,1.474c0.153,1.184-0.976,2.001-2.196,1.933
		c-2.272-0.129-2.814-2.623-1.603-4.206c1.209-1.584,3.445-1.728,4.905-1.751c4.546-0.075,5.102,1.862,5.64,4.1
		c0.443,1.848,0.725,8.714,0.735,9.35c0.012,0.634,0.294,1.018,0.806,1.018c0.514,0,0.676,0.806,0.783,1.175
		c0.109,0.372,0.555,0.268,0.741,0.001c0.189-0.27,0.389-0.953,0.389-1.313V25.238z M90.815,20.839
		c-0.26,0.384-0.245,1.899-0.102,3.26c0.149,1.365,0.905,1.703,1.716,1.733c0.6,0.027,1.105-0.507,1.105-1.368
		c0-0.586-0.123-4.38-0.418-4.933c-0.295-0.552-0.827-0.101-1.214,0.115C91.459,19.918,91.072,20.459,90.815,20.839"/>
	<path fill-rule="evenodd" clip-rule="evenodd" fill="#FFFFFF" d="M44.22,7.65c-0.031-0.741-0.102-1.828-0.33-2.3
		c-0.311-0.584-0.872-0.798-0.71-1.457c0.089-0.369,0.63-0.654,0.967-0.787c0.336-0.136,2.425-0.915,2.724-1.021
		c0.299-0.107,0.853-0.342,1.072-0.525c0.216-0.186,0.431-0.16,0.707-0.079c0.275,0.082,0.638,0.309,0.706,1.65
		c0.035,0.689-0.097,7.027,0.115,7.662c0.211,0.631,0.699,0.158,0.973,0.02c1.42-0.715,3.24,0.201,4.287,1.317
		c1.083,1.153,2.088,4.239,2.3,6.196c0.448-3.445,1.437-7.201,5.477-7.707c2.698-0.338,3.795,1.223,4.627,2.461
		c0.809,1.201,1.641,3.76,0.89,5.202c-0.497,0.246-5.478,2.261-5.677,2.309c-0.201,0.049-0.426,0.167-0.51,0.471
		c-0.082,0.304,0.344,1.367,0.344,1.367c0.571,1.708,1.78,1.756,2.66,1.924c0.879,0.164,1.169-0.501,1.252-1.055
		c0.081-0.551,0.483-0.91,1.059-0.882c0.931,0.114,1.758,1.132,1.612,1.769c-0.085,0.358-0.532,1.604-0.622,1.821
		c-0.093,0.217-0.22,0.607,0.007,0.651c0.603,0.126,0.835-0.428,0.835-0.819c0-0.388,0.012-3.781,0.01-4.611
		c0-0.825,0.018-4.858-0.013-5.988c-0.03-1.134-0.588-1.442-0.953-1.656c-0.364-0.21-0.429-0.521-0.265-0.797
		c0.168-0.277,0.827-0.628,1.068-0.73c0.239-0.097,3.546-1.297,3.981-1.461c0.438-0.165,1.137,0.136,1.277,0.345
		c0.137,0.209,0.163,1.398,0.168,2.006c0.005,0.61,0.432,0.42,0.681,0.06c0.246-0.358,1.258-1.743,2.603-2.122
		c1.147-0.321,2.106,0.17,2.437,0.225c0.328,0.054,0.424-0.078,0.424-0.536c0-0.46,0.009-2.981,0.009-3.397
		c-0.006-1.711-0.506-1.599-0.903-2.124c-0.619-0.816,0.164-1.142,0.53-1.356c0.364-0.213,1.888-0.81,2.165-0.913
		c0.286-0.133,1.722-0.766,2.402-0.891c0.52-0.099,0.991,0.538,0.973,1.615c-0.01,0.744,0.05,21.781,0.039,22.195
		c-0.013,0.415,0.199,0.899,0.579,1.108c0.383,0.21,0.55,0.678,0.333,1.203c-0.222,0.528-1.098,0.528-1.372,0.499
		c-0.277-0.031-3.987,0.001-4.593,0.007c-0.604,0.006-0.934-0.219-1.024-0.407c-0.32-0.662-0.076-1.137,0.278-1.32
		c0.305-0.156,0.578-0.564,0.578-1.063c0-0.494-0.009-8.97-0.016-9.357c-0.003-0.386-0.172-0.608-0.31-0.47
		c-0.136,0.137-0.287,0.422-0.783,0.587c-0.494,0.165-1.438-0.276-1.465-0.636c-0.029-0.358-0.254-0.975-0.666-1.03
		c-0.414-0.054-1.058,0.476-1.337,0.758c-0.721,0.72-1.548,2.393-1.573,4.075c-0.014,0.968,0.019,5.192,0.013,5.908
		c-0.009,0.718,0.292,0.99,0.787,1.295c0.497,0.303,0.133,0.893-0.145,1.222c-0.284,0.324-1.566,0.282-2.391,0.278
		c-0.824-0.003-2.53-0.063-3.547-0.034c-1.018,0.027-0.879-0.641-1.043-0.915c-0.166-0.277-0.406-0.062-0.669,0.172
		c-0.436,0.388-1.448,0.83-2.011,0.893c-3.321,0.374-4.248-0.201-5.664-1.446c-1.178-1.032-2.158-3.728-2.415-5.165
		c-0.083,1.546-0.759,4.062-1.758,5.253c-1.321,1.577-3.511,1.468-4.942,1.267c-1.43-0.196-2.191-1.209-2.547-1.594
		c-0.359-0.386-0.552-0.129-0.747-0.034c-0.193,0.094-0.376,0.563-0.677,1.014c-0.301,0.447-1.019,0.607-1.324,0.581
		c-0.285-0.026-0.68-0.143-0.923-0.28c-0.106,0.058-0.261,0.094-0.481,0.094h-5.626c-0.418,0-0.591-0.276-0.672-0.556
		c-0.147-0.496,0.335-0.633,0.494-0.753c0.163-0.129,0.405-0.538,0.476-0.944c0.256-1.506-0.249-6.119-0.4-7.325
		c-0.148-1.206-0.503-4.402-1.657-4.402c-0.417,0-0.757,0.42-0.881,0.977c-0.16,0.742-0.045,6.166-0.045,7.013
		c0,0.847-0.052,2.908,0.078,3.441c0.129,0.535,0.432,1.131,0.684,1.283c0.296,0.178,0.631,0.924-0.253,1.213
		c-0.497,0.16-5.099,0.083-5.467,0.028c-0.306-0.016-0.698-0.204-0.698-0.903c0.044-0.217,0.44-0.443,0.595-0.585
		c0.152-0.139,0.525-0.46,0.534-0.924c0.012-0.466,0.004-9.352,0.004-10.033c0-0.682,0.044-1.795-1.113-1.774
		c-0.67,0.01-1.2,0.453-1.443,1.5c-0.073,0.315,0.004,0.937,0.004,1.249l-0.003,8.281c0,0.493,0.08,1.052,0.327,1.328
		c0.247,0.279,0.539,0.58,0.668,0.689c0.128,0.111,0.135,0.575-0.067,0.795c-0.205,0.224-0.323,0.369-0.825,0.382
		c0,0-4.787-0.031-5.294-0.013c-0.728,0.025-0.949-0.269-1.157-0.538c-0.165,0.124-0.308,0.504-1.006,0.541
		c-0.696,0.037-4.832,0.031-5.259,0.028c-0.729-0.006-0.971-0.29-1.082-0.358c-0.11-0.069-0.294-0.146-0.548,0.018
		c-0.064,0.041-0.128,0.076-0.197,0.104c-0.168,0.137-0.395,0.225-0.643,0.225H9.963H6.631c-0.796,0-1.383-0.911-0.489-1.467
		c0.437-0.27,0.755-0.974,0.755-1.773V6.024c0-0.721-0.083-1.792-0.925-1.536c-0.843,0.257-1.364,1.3-1.677,1.997
		C3.98,7.179,3.335,8.442,3.124,8.88C2.793,9.569,2.053,9.654,1.479,9.605c-0.586-0.05-1.157-0.85-0.978-1.454
		c0.156-0.765,1.257-5.865,1.441-6.529c0.184-0.663,0.365-0.59,0.806-0.702c0.438-0.107,0.84,0.42,1.535,0.579
		C4.816,1.62,7.46,1.534,9.958,1.563c2.508-0.029,5.153,0.057,5.686-0.064c0.693-0.159,1.093-0.686,1.535-0.579
		c0.439,0.112,0.622,0.039,0.803,0.702c0.184,0.664,1.286,5.765,1.441,6.529c0.181,0.604-0.391,1.405-0.973,1.454
		c-0.574,0.049-1.318-0.037-1.647-0.725c-0.21-0.438-0.856-1.701-1.17-2.395c-0.312-0.698-0.838-1.74-1.679-1.997
		c-0.844-0.256-0.923,0.815-0.923,1.536V24.77c0.005,0.629,0.421,1.829,1.229,1.968c0.52,0.056,1.28-0.316,1.28-1.584
		c0-1.285,0.02-8.229,0.02-9.223c0-0.621,0.005-1.634-0.551-2.003c-0.358-0.236-0.819-0.646-0.764-0.961
		c0.055-0.312,0.405-0.661,0.695-0.788c0.292-0.13,1.708-0.66,2.075-0.789c0.951-0.349,2.195-0.799,2.761-0.836
		c0.567-0.037,0.931,0.34,0.931,0.886v13.509c0,0.458,0.071,1.127,0.528,1.479c0.52,0.398,0.751,0.965,1.51,0
		c0.16-0.203,0.46-0.444,0.46-1.458v-9.811c0,0-0.044-0.752-0.321-0.976c-0.278-0.223-0.826-0.537-0.963-0.844
		c-0.181-0.402,0.05-0.836,0.562-1.06c0.515-0.218,3.892-1.441,4.167-1.546c0.275-0.109,0.767-0.177,1.005-0.102
		c0.239,0.073,0.562,0.165,0.581,0.609c0.018,0.439,0.081,0.928,0.484,0.928c0.403,0,0.927-0.878,1.196-1.074
		c0.269-0.2,1.277-0.66,2.396-0.513c1.117,0.149,1.596,0.185,2.471,1.379c0.302,0.408,0.735,0.289,1.003-0.091
		c0.263-0.379,0.707-0.901,1.131-1.025c0.458-0.133,1.798-0.424,2.776,0.133c0.795,0.452,1.602,1.124,2.098,2.911
		c0.492,1.789,1.283,6.227,1.347,8.175c0.066,1.871,0.196,4.218,0.554,4.563c0.16,0.154,0.322,0.28,0.455,0.399
		c0.052-0.219,0.069-0.48,0.088-0.77c0.028-0.472-0.006-3.286-0.015-4.5c-0.01-1.216,0.009-13.472,0-14.025V7.65z M50.183,24.313
		c0.962,0,1.742-2.482,1.742-5.542c0-3.06-0.78-5.542-1.742-5.542c-0.96,0-1.74,2.482-1.74,5.542
		C48.443,21.83,49.223,24.313,50.183,24.313 M60.172,18.36c0.255,0.881,1.007,0.429,1.79,0.045c0.787-0.388,1.314-1.194,1.093-2.553
		c-0.22-1.362-0.941-2.715-1.828-3.048c-0.467-0.175-0.881,0.502-1.136,1.003C59.679,14.543,59.913,17.477,60.172,18.36"/>
	<path fill-rule="evenodd" clip-rule="evenodd" fill="#FFFFFF" d="M118.366,10.658c0.824-0.144,1.837,0.051,2.36,0.535
		c0.495,0.459,0.606-0.123,0.606-0.429c0-0.306,0.037-3.258,0.037-3.672c0-0.413-0.113-1.157-0.369-1.457
		c-0.263-0.298-0.988-0.391-1.032-1.056c-0.039-0.48,0.463-0.885,0.79-0.911c0.331-0.028,0.884-0.111,1.18-0.191
		c0.304-0.084,2.971-1.286,3.219-1.386c0.245-0.102,0.354-0.253,0.764-0.253c0.415,0,0.566,0.627,0.6,0.948
		c0.033,0.317,0.064,1.629,0.064,2.402c0,0.772-0.008,18.193-0.005,18.717c0.005,0.551-0.026,1.16,0.38,1.405
		c0.244,0.145,0.784,0.445,0.784,0.859c0,0.416-0.261,0.803-0.706,0.999c-0.511,0.224-4.139,1.736-4.882,1.618
		c-0.515-0.083-0.615-0.381-0.643-0.631c-0.027-0.247-0.168-0.299-0.398-0.216c-0.231,0.083-0.656,0.572-1.341,0.903
		c-0.686,0.33-1.919-0.004-2.843-0.43c-3.032-1.391-3.434-5.363-3.125-9.063c0.238-2.777,1.312-6.348,2.848-7.723
		C116.83,11.446,117.559,10.795,118.366,10.658 M119.875,24.749c0.962,0,1.744-2.48,1.744-5.542c0-3.064-0.782-5.542-1.744-5.542
		c-0.966,0-1.745,2.478-1.745,5.542C118.129,22.269,118.909,24.749,119.875,24.749"/>
</g>
</svg>
