<?xml version="1.0"?>
<!--Icons from directory ""-->
<svg xmlns="http://www.w3.org/2000/svg" width="55" height="380" viewBox="0 0 55 380"><svg xmlns:xlink="http://www.w3.org/1999/xlink" style="enable-background:new 0 0 18.858 19.547" xml:space="preserve" height="40" width="39" version="1.1" y="0" x="0px" viewBox="-10 -10 38.858 39.547" id="cb"><g id="cb-cb">		<defs>			<rect id="cb-SVGID_1_" y="0" width="18.858" height="19.547"/>		</defs>		<clipPath id="cb-SVGID_2_">			<use xlink:href="#cb-SVGID_1_"/>		</clipPath>		<path style="clip-path:url(#cb-SVGID_2_)" d="m17.438 16.723c0 0.777-0.637 1.414-1.415 1.414h-13.195c-0.781 0-1.414-0.637-1.414-1.414v-13.899c0-0.777 0.633-1.414 1.414-1.414h13.195c0.778 0 1.415 0.637 1.415 1.414l1.41 0.02c0.152-1.938-1.403-2.844-2.825-2.844h-13.195c-1.562 0-2.828 1.266-2.828 2.824v13.899c0 1.558 1.266 2.824 2.828 2.824h13.195c1.563 0 2.825-1.266 2.825-2.824v-13.879l-1.414-0.02v13.899h0.004z" fill="#fff"/></g></svg><svg xmlns:xlink="http://www.w3.org/1999/xlink" style="enable-background:new 0 0 18.858 19.547" xml:space="preserve" height="40" width="39" version="1.1" y="40" x="0px" viewBox="-10 -10 38.858 39.547" id="cb_dark"><g id="cb_dark-cb_x5F_dark">		<defs>			<rect id="cb_dark-SVGID_1_" y="0" width="18.858" height="19.547"/>		</defs>		<clipPath id="cb_dark-SVGID_2_">			<use xlink:href="#cb_dark-SVGID_1_"/>		</clipPath>		<path style="clip-path:url(#cb_dark-SVGID_2_)" d="m17.438 16.723c0 0.777-0.637 1.414-1.415 1.414h-13.195c-0.781 0-1.414-0.637-1.414-1.414v-13.899c0-0.777 0.633-1.414 1.414-1.414h13.195c0.778 0 1.415 0.637 1.415 1.414l1.41 0.02c0.152-1.938-1.403-2.844-2.825-2.844h-13.195c-1.562 0-2.828 1.266-2.828 2.824v13.899c0 1.558 1.266 2.824 2.828 2.824h13.195c1.563 0 2.825-1.266 2.825-2.824v-13.879l-1.414-0.02v13.899h0.004z" fill="#767676"/></g></svg><svg xmlns:xlink="http://www.w3.org/1999/xlink" style="enable-background:new 0 0 22.285 19.547" xml:space="preserve" height="40" width="42" version="1.1" y="80" x="0px" viewBox="-10 -10 42.285 39.547" id="cb_dark_over"><g id="cb_dark_over-cb_x5F_dark_x5F_over">			<defs>				<rect id="cb_dark_over-SVGID_1_" y="0" width="22.284" height="19.547"/>			</defs>			<clipPath id="cb_dark_over-SVGID_2_">				<use xlink:href="#cb_dark_over-SVGID_1_"/>			</clipPath>			<path style="clip-path:url(#cb_dark_over-SVGID_2_)" d="m22.082 4.031l-10.742 10.747c-0.27 0.265-0.707 0.265-0.977 0l-1.465-1.465-0.015-0.024-4.645-4.679c-0.269-0.27-0.269-0.711 0-0.977l1.465-1.465c0.27-0.269 0.703-0.269 0.977 0l4.175 4.211 8.786-8.785c0.269-0.27 0.707-0.27 0.976 0l1.465 1.465c0.27 0.265 0.27 0.707 0 0.972" fill="#767676"/>			<path style="clip-path:url(#cb_dark_over-SVGID_2_)" d="m17.438 16.723c0 0.777-0.637 1.414-1.415 1.414h-13.195c-0.781 0-1.414-0.637-1.414-1.414v-13.899c0-0.777 0.633-1.414 1.414-1.414h13.195c0.778 0 1.415 0.637 1.415 1.414l1.003-0.929c0.161-1.145-0.996-1.895-2.418-1.895h-13.195c-1.562 0-2.828 1.266-2.828 2.824v13.899c0 1.558 1.266 2.824 2.828 2.824h13.195c1.563 0 2.825-1.266 2.825-2.824v-8.285l-1.414 1.539v6.746h0.004z" fill="#767676"/></g></svg><svg xmlns:xlink="http://www.w3.org/1999/xlink" style="enable-background:new 0 0 22.285 19.547" xml:space="preserve" height="40" width="42" version="1.1" y="120" x="0px" viewBox="-10 -10 42.285 39.547" id="cb_over"><g id="cb_over-cb_x5F_over">		<defs>			<rect id="cb_over-SVGID_1_" y="0" width="22.284" height="19.547"/>		</defs>		<clipPath id="cb_over-SVGID_2_">			<use xlink:href="#cb_over-SVGID_1_"/>		</clipPath>		<path style="clip-path:url(#cb_over-SVGID_2_)" d="m22.082 4.031l-10.742 10.747c-0.27 0.265-0.707 0.265-0.977 0l-1.465-1.465-0.015-0.024-4.645-4.679c-0.269-0.27-0.269-0.711 0-0.977l1.465-1.465c0.27-0.269 0.703-0.269 0.977 0l4.175 4.211 8.786-8.785c0.269-0.27 0.707-0.27 0.976 0l1.465 1.465c0.27 0.265 0.27 0.707 0 0.972" fill="#fff"/>		<path style="clip-path:url(#cb_over-SVGID_2_)" d="m17.438 16.723c0 0.777-0.637 1.414-1.415 1.414h-13.195c-0.781 0-1.414-0.637-1.414-1.414v-13.899c0-0.777 0.633-1.414 1.414-1.414h13.195c0.778 0 1.415 0.637 1.415 1.414l1.003-0.929c0.161-1.145-0.996-1.895-2.418-1.895h-13.195c-1.562 0-2.828 1.266-2.828 2.824v13.899c0 1.558 1.266 2.824 2.828 2.824h13.195c1.563 0 2.825-1.266 2.825-2.824v-8.285l-1.414 1.539v6.746h0.004z" fill="#fff"/></g></svg><svg xmlns:xlink="http://www.w3.org/1999/xlink" style="enable-background:new 0 0 35 35" xml:space="preserve" height="55" width="55" version="1.1" y="160" x="0px" viewBox="-10 -10 55 55" id="radio"><g id="radio-radio">			<circle stroke-linejoin="round" stroke-width="2" fill-rule="evenodd" stroke-linecap="round" stroke="#A7A7A7" cy="17.5" cx="17.5" clip-rule="evenodd" stroke-miterlimit="10" r="16.5" fill="#fff"/></g></svg><svg xmlns:xlink="http://www.w3.org/1999/xlink" style="enable-background:new 0 0 35 35" xml:space="preserve" height="55" width="55" version="1.1" y="215" x="0px" viewBox="-10 -10 55 55" id="radio_over"><g id="radio_over-radio_x5F_over">	<g clip-rule="evenodd" fill-rule="evenodd">			<circle stroke-linejoin="round" stroke-width="2" stroke-linecap="round" stroke="#A7A7A7" cy="17.5" cx="17.5" stroke-miterlimit="10" r="16.5" fill="#fff"/>		<circle cy="17.5" cx="17.5" r="9" fill="#A7A7A7"/>	</g></g></svg><svg xmlns:xlink="http://www.w3.org/1999/xlink" style="enable-background:new 0 0 35 35" xml:space="preserve" height="55" width="55" version="1.1" y="270" x="0px" viewBox="-10 -10 55 55" id="radio_square"><g id="radio_square-radio_x5F_square">		<path stroke-linejoin="round" d="m34 31c0 1.657-1.343 3-3 3h-27c-1.657 0-3-1.343-3-3v-27c0-1.657 1.343-3 3-3h27c1.657 0 3 1.343 3 3v27z" fill-rule="evenodd" stroke="#A7A7A7" stroke-linecap="round" clip-rule="evenodd" stroke-miterlimit="10" stroke-width="2" fill="#fff"/></g></svg><svg xmlns:xlink="http://www.w3.org/1999/xlink" style="enable-background:new 0 0 35 35" xml:space="preserve" height="55" width="55" version="1.1" y="325" x="0px" viewBox="-10 -10 55 55" id="radio_square_over"><g id="radio_square_over-radio_x5F_square_x5F_over" stroke-linejoin="round" fill-rule="evenodd" stroke="#A7A7A7" stroke-linecap="round" stroke-miterlimit="10" clip-rule="evenodd" stroke-width="2">		<path d="m34 31c0 1.657-1.343 3-3 3h-27c-1.657 0-3-1.343-3-3v-27c0-1.657 1.343-3 3-3h27c1.657 0 3 1.343 3 3v27z" fill="#fff"/>		<path d="m25.875 24.352c0 0.841-0.682 1.523-1.523 1.523h-13.704c-0.841 0-1.523-0.682-1.523-1.523v-13.704c0-0.841 0.682-1.523 1.523-1.523h13.705c0.841 0 1.523 0.682 1.523 1.523v13.704z" fill="#A7A7A7"/></g></svg></svg>
