<?xml version="1.0" encoding="utf-8"?>
<!-- Generator: Adobe Illustrator 17.0.0, SVG Export Plug-In . SVG Version: 6.00 Build 0)  -->
<!DOCTYPE svg PUBLIC "-//W3C//DTD SVG 1.1//EN" "http://www.w3.org/Graphics/SVG/1.1/DTD/svg11.dtd">
<svg version="1.1" id="Layer_1" xmlns="http://www.w3.org/2000/svg" xmlns:xlink="http://www.w3.org/1999/xlink" x="0px" y="0px"
	 width="159.75px" height="124px" viewBox="0 0 159.75 124" enable-background="new 0 0 159.75 124" xml:space="preserve">
<g>
	<g>
		<defs>
			<polygon id="SVGID_1_" points="82.818,99.198 82.511,99.034 82.505,99.039 82.35,99.282 82.565,99.478 82.92,99.798 
				83.109,99.35 82.818,99.198 83.022,98.973 83.02,98.972 			"/>
		</defs>
		<clipPath id="SVGID_2_">
			<use xlink:href="#SVGID_1_"  overflow="visible"/>
		</clipPath>
		<defs>
			<filter id="Adobe_OpacityMaskFilter" filterUnits="userSpaceOnUse" x="82.308" y="98.934" width="0.843" height="0.903">
				<feColorMatrix  type="matrix" values="1 0 0 0 0  0 1 0 0 0  0 0 1 0 0  0 0 0 1 0"/>
			</filter>
		</defs>
		<mask maskUnits="userSpaceOnUse" x="82.308" y="98.934" width="0.843" height="0.903" id="SVGID_3_">
			<g filter="url(#Adobe_OpacityMaskFilter)">
				<g>
					<defs>
						
							<rect id="SVGID_4_" x="82.33" y="98.954" transform="matrix(-0.9987 0.0519 -0.0519 -0.9987 170.5042 194.3459)" width="0.8" height="0.864"/>
					</defs>
					<clipPath id="SVGID_5_" clip-path="url(#SVGID_2_)">
						<use xlink:href="#SVGID_4_"  overflow="visible"/>
					</clipPath>
					
						<radialGradient id="SVGID_6_" cx="562.7314" cy="-1398.7417" r="0.9998" gradientTransform="matrix(0.2784 -0.0141 0.0141 0.2784 -54.1496 496.5689)" gradientUnits="userSpaceOnUse">
						<stop  offset="0" style="stop-color:#000000"/>
						<stop  offset="0.1067" style="stop-color:#000000"/>
						<stop  offset="1" style="stop-color:#FFFFFF"/>
					</radialGradient>
					<polygon clip-path="url(#SVGID_5_)" fill="url(#SVGID_6_)" points="82.31,99.88 83.197,99.836 83.149,98.891 82.262,98.936 
											"/>
				</g>
			</g>
		</mask>
		
			<radialGradient id="SVGID_7_" cx="562.7316" cy="-1398.7416" r="0.9999" gradientTransform="matrix(0.2784 -0.0141 0.0141 0.2784 -54.1496 496.5689)" gradientUnits="userSpaceOnUse">
			<stop  offset="0" style="stop-color:#FDCA50"/>
			<stop  offset="0.1067" style="stop-color:#FDCA50"/>
			<stop  offset="1" style="stop-color:#F79938"/>
		</radialGradient>
		<polygon clip-path="url(#SVGID_2_)" mask="url(#SVGID_3_)" fill="url(#SVGID_7_)" points="82.352,99.836 83.151,99.797 
			83.107,98.934 82.308,98.974 		"/>
	</g>
	<g>
		<defs>
			<path id="SVGID_8_" d="M132.175,13.364c3.629-0.183,6.532-1.534,9.582-3.037c0.33-0.164,0.756-0.259,1.229-0.281
				c0.947-0.051,2.067,0.183,2.926,0.514l0.004,0.003c0.022,0.017,0.086,0.088,0.145,0.204c0.188,0.35,0.347,1.046,0.373,1.657
				c0.016,0.296,0.003,0.576-0.035,0.783c-0.117,0.678-0.17,1.313-0.139,1.91c0.048,0.963,0.318,1.835,0.858,2.583
				c0.538,0.75,1.33,1.367,2.382,1.885c0.283,0.133,0.683,0.526,0.976,0.979c0.303,0.449,0.503,0.972,0.515,1.288
				c0.003,0.068-0.001,0.125-0.01,0.168c-0.352,1.856-1.282,3.694-2.212,5.48c-0.202,0.393-0.409,0.684-0.612,0.863
				c-0.205,0.181-0.387,0.26-0.623,0.274c-0.328,0.021-0.82-0.13-1.495-0.588c-1.066-0.72-1.658-1.523-2.045-2.447
				c-0.387-0.923-0.555-1.98-0.701-3.153c-0.232-1.828-1.119-3.3-2.369-4.273c-1.25-0.978-2.852-1.462-4.516-1.377
				c-1.011,0.05-2.044,0.312-3.037,0.8c-1.104,0.545-2.152,1.25-3.232,1.823c-1.083,0.575-2.183,1.015-3.396,1.075
				c-0.851,0.042-1.763-0.095-2.787-0.526c1.011-1.411,1.855-2.96,2.824-4.19c0.533-0.68,1.101-1.261,1.738-1.676
				c0.639-0.415,1.344-0.673,2.198-0.718c0.111-0.005,0.222-0.009,0.338-0.005c0.091,0.002,0.181,0.002,0.27,0.002
				C131.613,13.386,131.895,13.378,132.175,13.364 M142.941,9.162c-0.558,0.029-1.098,0.137-1.574,0.371
				c-3.045,1.502-5.811,2.775-9.236,2.947c-0.347,0.018-0.7,0.025-1.062,0.019c-0.136-0.001-0.268,0-0.398,0.006
				c-1.013,0.05-1.887,0.37-2.637,0.861c-1.127,0.736-1.98,1.833-2.771,3.006c-0.79,1.172-1.516,2.428-2.341,3.506l0.352,0.27
				l-0.194,0.396c1.34,0.664,2.573,0.898,3.707,0.839c1.402-0.072,2.633-0.577,3.766-1.179c1.133-0.601,2.178-1.303,3.209-1.809
				c0.886-0.437,1.801-0.666,2.69-0.711c1.464-0.074,2.854,0.353,3.926,1.19c1.071,0.839,1.829,2.081,2.035,3.688
				c0.151,1.187,0.321,2.321,0.763,3.382c0.44,1.062,1.167,2.036,2.367,2.842c0.755,0.506,1.407,0.767,2.035,0.737
				c0.446-0.02,0.851-0.209,1.17-0.499c0.321-0.288,0.576-0.667,0.807-1.115c0.927-1.792,1.907-3.692,2.296-5.723
				c0.023-0.125,0.029-0.251,0.023-0.377c-0.035-0.579-0.301-1.181-0.658-1.731c-0.363-0.544-0.81-1.027-1.326-1.286
				c-0.962-0.475-1.622-1.007-2.054-1.607c-0.43-0.601-0.648-1.281-0.692-2.113c-0.025-0.514,0.02-1.083,0.128-1.712
				c0.053-0.3,0.063-0.633,0.045-0.979c-0.026-0.526-0.118-1.077-0.273-1.547c-0.077-0.233-0.171-0.45-0.292-0.64
				c-0.123-0.184-0.274-0.361-0.522-0.458c-0.876-0.334-1.954-0.579-2.986-0.579C143.14,9.155,143.041,9.157,142.941,9.162"/>
		</defs>
		<use xlink:href="#SVGID_8_"  overflow="visible" fill="#FFFFFF"/>
		<clipPath id="SVGID_9_">
			<use xlink:href="#SVGID_8_"  overflow="visible"/>
		</clipPath>
		<defs>
			<filter id="Adobe_OpacityMaskFilter_1_" filterUnits="userSpaceOnUse" x="121.891" y="7.69" width="31.02" height="23.325">
				<feColorMatrix  type="matrix" values="1 0 0 0 0  0 1 0 0 0  0 0 1 0 0  0 0 0 1 0"/>
			</filter>
		</defs>
		<mask maskUnits="userSpaceOnUse" x="121.891" y="7.69" width="31.02" height="23.325" id="SVGID_10_">
			<g filter="url(#Adobe_OpacityMaskFilter_1_)">
				
					<radialGradient id="SVGID_11_" cx="-59.2783" cy="203.2685" r="1.0002" gradientTransform="matrix(12.5011 -0.6337 0.6337 12.5011 749.5801 -2558.8979)" gradientUnits="userSpaceOnUse">
					<stop  offset="0" style="stop-color:#000000"/>
					<stop  offset="0.1067" style="stop-color:#000000"/>
					<stop  offset="1" style="stop-color:#FFFFFF"/>
				</radialGradient>
				<polygon clip-path="url(#SVGID_9_)" fill="url(#SVGID_11_)" points="122.997,31.015 152.911,29.499 151.805,7.69 121.891,9.208 
									"/>
			</g>
		</mask>
		
			<rect x="122.425" y="8.434" transform="matrix(-0.9987 0.0506 -0.0506 -0.9987 275.6055 31.7255)" clip-path="url(#SVGID_9_)" mask="url(#SVGID_10_)" fill="#FFFFFF" width="29.952" height="21.837"/>
	</g>
	<g>
		<defs>
			<path id="SVGID_12_" d="M149.13,1.891l0.019,0.445c2.117-0.089,3.662,0.242,4.658,0.936c0.5,0.347,0.875,0.783,1.144,1.332
				c0.27,0.551,0.431,1.223,0.472,2.028c0.033,0.664-0.016,1.42-0.151,2.265c-0.352,2.208-1.117,4.402-1.977,6.519h-0.001
				c-0.008,0.015-0.061,0.074-0.151,0.133c-0.272,0.186-0.84,0.365-1.247,0.38c-0.153,0.009-0.285-0.006-0.354-0.028
				c-0.63-0.188-0.983-0.452-1.202-0.752c-0.221-0.299-0.321-0.666-0.344-1.105c-0.035-0.655,0.122-1.438,0.253-2.194
				c0.072-0.432,0.102-0.823,0.084-1.186c-0.032-0.734-0.295-1.362-0.765-1.848c-0.468-0.486-1.104-0.847-1.909-1.21
				c-1.161-0.52-2.249-0.699-3.268-0.646c-1.194,0.06-2.287,0.431-3.333,0.884c-1.046,0.455-2.052,0.997-3.079,1.431
				c-1.227,0.526-2.706,0.654-4.372,0.95c0.023-0.179,0.039-0.312,0.052-0.413c0.009-0.069,0.018-0.121,0.022-0.151
				c0.448-0.479,0.946-0.934,1.439-1.413c1.738-1.603,3.532-3.04,5.463-4.103c1.933-1.063,4-1.753,6.312-1.871
				c0.705-0.035,1.435-0.02,2.19,0.06L149.13,1.891z M146.85,1.391c-2.464,0.124-4.671,0.864-6.695,1.981
				c-2.026,1.115-3.872,2.602-5.645,4.232l-0.005,0.006l-0.004,0.003c-0.493,0.482-1.016,0.959-1.506,1.489
				c-0.092,0.098-0.143,0.219-0.165,0.309c-0.035,0.144-0.046,0.269-0.071,0.467c-0.023,0.195-0.058,0.455-0.119,0.822l-0.105,0.635
				l0.631-0.128c1.837-0.377,3.573-0.451,5.159-1.115c1.077-0.46,2.086-1.002,3.086-1.438c1-0.434,1.987-0.759,3.024-0.811
				c0.888-0.045,1.818,0.103,2.862,0.57c0.763,0.339,1.3,0.664,1.63,1.014c0.328,0.351,0.487,0.71,0.52,1.28
				c0.015,0.281-0.01,0.61-0.072,0.995c-0.123,0.733-0.304,1.566-0.264,2.385c0.026,0.547,0.16,1.104,0.512,1.584
				c0.351,0.479,0.904,0.853,1.665,1.078c0.211,0.062,0.428,0.074,0.651,0.063c0.416-0.021,0.859-0.129,1.248-0.292
				c0.194-0.083,0.374-0.179,0.534-0.298c0.156-0.12,0.302-0.26,0.394-0.474c0.867-2.144,1.66-4.396,2.029-6.709
				c0.143-0.895,0.198-1.709,0.16-2.45c-0.045-0.898-0.226-1.691-0.559-2.372c-0.497-1.025-1.343-1.774-2.462-2.218
				c-1.112-0.445-2.489-0.612-4.142-0.548c-0.526-0.054-1.043-0.079-1.549-0.079C147.344,1.372,147.096,1.378,146.85,1.391"/>
		</defs>
		<use xlink:href="#SVGID_12_"  overflow="visible" fill="#FFFFFF"/>
		<clipPath id="SVGID_13_">
			<use xlink:href="#SVGID_12_"  overflow="visible"/>
		</clipPath>
		<defs>
			<filter id="Adobe_OpacityMaskFilter_2_" filterUnits="userSpaceOnUse" x="131.755" y="0.169" width="25.371" height="17.858">
				<feColorMatrix  type="matrix" values="1 0 0 0 0  0 1 0 0 0  0 0 1 0 0  0 0 0 1 0"/>
			</filter>
		</defs>
		<mask maskUnits="userSpaceOnUse" x="131.755" y="0.169" width="25.371" height="17.858" id="SVGID_14_">
			<g filter="url(#Adobe_OpacityMaskFilter_2_)">
				
					<radialGradient id="SVGID_15_" cx="-59.5053" cy="203.301" r="0.9987" gradientTransform="matrix(10.1138 -0.5127 0.5127 10.1138 642.0452 -2077.2996)" gradientUnits="userSpaceOnUse">
					<stop  offset="0" style="stop-color:#000000"/>
					<stop  offset="0.1067" style="stop-color:#000000"/>
					<stop  offset="1" style="stop-color:#FFFFFF"/>
				</radialGradient>
				<polygon clip-path="url(#SVGID_13_)" fill="url(#SVGID_15_)" points="132.596,18.027 157.126,16.785 156.284,0.169 
					131.755,1.412 				"/>
			</g>
		</mask>
		
			<rect x="132.16" y="0.779" transform="matrix(-0.9987 0.0506 -0.0506 -0.9987 289.1555 10.8785)" clip-path="url(#SVGID_13_)" mask="url(#SVGID_14_)" fill="#FFFFFF" width="24.561" height="16.638"/>
	</g>
	<g>
		<defs>
			<path id="SVGID_16_" d="M116.781,66.528c-0.92-0.177-1.563-0.534-1.997-1.024c-0.433-0.491-0.676-1.136-0.719-1.963
				c-0.016-0.304-0.003-0.632,0.04-0.98c0.154-1.277,0.648-2.329,1.35-3.069c0.703-0.742,1.606-1.179,2.634-1.231
				c0.153-0.007,0.31-0.005,0.469,0.003c0.604,0.039,1.001,0.179,1.275,0.362c0.207,0.14,0.353,0.306,0.471,0.506
				c0.175,0.3,0.278,0.687,0.349,1.115c0.068,0.406,0.105,0.844,0.182,1.271c-0.164,1.357-0.688,2.615-1.371,3.528
				c-0.346,0.463-0.733,0.837-1.126,1.093c-0.392,0.258-0.785,0.397-1.156,0.416c-0.03,0.002-0.06,0.002-0.09,0.002
				C116.987,66.558,116.883,66.549,116.781,66.528 M118.044,57.376c-1.255,0.063-2.388,0.611-3.232,1.507
				c-0.847,0.893-1.411,2.129-1.585,3.572c-0.048,0.392-0.063,0.771-0.045,1.13c0.048,0.976,0.353,1.842,0.94,2.503
				c0.584,0.665,1.432,1.105,2.493,1.309c0.201,0.039,0.406,0.052,0.61,0.043c0.562-0.028,1.103-0.234,1.597-0.56
				c0.743-0.489,1.396-1.246,1.902-2.165c0.507-0.921,0.866-2.007,0.996-3.163l-0.439-0.05l0.435-0.082
				c-0.136-0.688-0.14-1.596-0.493-2.428c-0.178-0.414-0.463-0.812-0.896-1.101c-0.435-0.292-0.998-0.466-1.711-0.511
				c-0.109-0.007-0.217-0.01-0.323-0.01C118.209,57.37,118.126,57.372,118.044,57.376"/>
		</defs>
		<use xlink:href="#SVGID_16_"  overflow="visible" fill="#FFFFFF"/>
		<clipPath id="SVGID_17_">
			<use xlink:href="#SVGID_16_"  overflow="visible"/>
		</clipPath>
		<defs>
			<filter id="Adobe_OpacityMaskFilter_3_" filterUnits="userSpaceOnUse" x="112.653" y="56.938" width="9.577" height="10.944">
				<feColorMatrix  type="matrix" values="1 0 0 0 0  0 1 0 0 0  0 0 1 0 0  0 0 0 1 0"/>
			</filter>
		</defs>
		<mask maskUnits="userSpaceOnUse" x="112.653" y="56.938" width="9.577" height="10.944" id="SVGID_18_">
			<g filter="url(#Adobe_OpacityMaskFilter_3_)">
				
					<radialGradient id="SVGID_19_" cx="-60.5136" cy="203.7704" r="1.0014" gradientTransform="matrix(4.6671 -0.2366 0.2366 4.6671 351.6524 -902.9247)" gradientUnits="userSpaceOnUse">
					<stop  offset="0" style="stop-color:#000000"/>
					<stop  offset="0.1067" style="stop-color:#000000"/>
					<stop  offset="1" style="stop-color:#FFFFFF"/>
				</radialGradient>
				<polygon clip-path="url(#SVGID_17_)" fill="url(#SVGID_19_)" points="113.184,67.882 122.23,67.424 121.699,56.938 
					112.653,57.396 				"/>
			</g>
		</mask>
		
			<rect x="112.913" y="57.16" transform="matrix(-0.9987 0.0506 -0.0506 -0.9987 237.8893 118.7997)" clip-path="url(#SVGID_17_)" mask="url(#SVGID_18_)" fill="#FFFFFF" width="9.057" height="10.5"/>
	</g>
	<g>
		<defs>
			<path id="SVGID_20_" d="M135.459,19.211c-0.804,0.042-1.634,0.262-2.441,0.679c-1.41,0.735-2.57,1.788-3.856,2.328
				c-1.152,0.493-2.423,0.941-3.582,0.998c-0.168,0.008-0.332,0.01-0.494,0.002c-0.915-0.047-1.695-0.064-2.377-0.029
				c-0.4,0.019-0.768,0.058-1.107,0.12l-0.256,0.047l-2.856,8.486l0.71-0.1c0.445-0.062,0.883-0.155,1.307-0.32
				c1.599-0.624,3.282-1.337,4.666-2.436c0.975-0.773,2.17-1.164,3.44-1.23c1.777-0.091,3.69,0.475,5.227,1.513
				c1.538,1.038,2.689,2.531,3.021,4.272c0.223,1.144,0.411,2.006,0.653,2.719c0.357,1.07,0.872,1.808,1.698,2.478
				c0.824,0.674,1.941,1.315,3.63,2.361l0.422,0.261l0.21-0.448c1.107-2.354,2.363-4.637,3.198-7.104
				c0.042-0.123,0.051-0.241,0.045-0.354c-0.015-0.262-0.102-0.5-0.223-0.744c-0.181-0.362-0.443-0.729-0.741-1.059
				c-0.299-0.325-0.625-0.61-0.968-0.792l-0.205,0.392l-0.206,0.392c0.27,0.137,0.666,0.5,0.963,0.889
				c0.15,0.194,0.278,0.396,0.365,0.571c0.088,0.174,0.131,0.329,0.131,0.395v0.026c-0.749,2.219-1.884,4.341-2.947,6.562
				c-1.998-1.226-3.094-1.875-3.729-2.626c-0.345-0.402-0.586-0.844-0.805-1.484c-0.217-0.638-0.403-1.472-0.621-2.601
				c-0.39-2.025-1.707-3.701-3.396-4.84c-1.692-1.141-3.77-1.763-5.767-1.663c-1.421,0.071-2.805,0.517-3.945,1.42
				c-1.253,0.996-2.856,1.69-4.436,2.304c-0.124,0.047-0.252,0.089-0.386,0.125l2.217-6.584c0.226-0.032,0.47-0.054,0.736-0.067
				c0.633-0.032,1.388-0.016,2.289,0.028c0.194,0.011,0.388,0.009,0.583,0c1.347-0.07,2.695-0.561,3.884-1.066
				c1.468-0.633,2.641-1.705,3.916-2.357c0.699-0.361,1.405-0.547,2.079-0.581c1.108-0.056,2.126,0.294,2.893,0.952
				c0.767,0.659,1.287,1.626,1.383,2.86c0.123,1.661,0.459,3.173,1.178,4.489c0.718,1.315,1.823,2.417,3.416,3.247l0.206-0.392
				l0.203-0.393c-1.459-0.763-2.411-1.725-3.049-2.887c-0.637-1.164-0.954-2.544-1.073-4.13c-0.106-1.452-0.74-2.656-1.688-3.466
				c-0.879-0.755-2.021-1.171-3.239-1.171C135.642,19.204,135.55,19.207,135.459,19.211"/>
		</defs>
		<use xlink:href="#SVGID_20_"  overflow="visible" fill="#FFFFFF"/>
		<clipPath id="SVGID_21_">
			<use xlink:href="#SVGID_20_"  overflow="visible"/>
		</clipPath>
		<defs>
			<filter id="Adobe_OpacityMaskFilter_4_" filterUnits="userSpaceOnUse" x="117.369" y="17.776" width="30.473" height="25.011">
				<feColorMatrix  type="matrix" values="1 0 0 0 0  0 1 0 0 0  0 0 1 0 0  0 0 0 1 0"/>
			</filter>
		</defs>
		<mask maskUnits="userSpaceOnUse" x="117.369" y="17.776" width="30.473" height="25.011" id="SVGID_22_">
			<g filter="url(#Adobe_OpacityMaskFilter_4_)">
				
					<radialGradient id="SVGID_23_" cx="-59.2748" cy="203.2108" r="1.0003" gradientTransform="matrix(12.7168 -0.6446 0.6446 12.7168 755.2942 -2591.7644)" gradientUnits="userSpaceOnUse">
					<stop  offset="0" style="stop-color:#000000"/>
					<stop  offset="0.1067" style="stop-color:#000000"/>
					<stop  offset="1" style="stop-color:#FFFFFF"/>
				</radialGradient>
				<polygon clip-path="url(#SVGID_21_)" fill="url(#SVGID_23_)" points="118.561,42.787 147.841,41.303 146.649,17.776 
					117.369,19.26 				"/>
			</g>
		</mask>
		
			<rect x="117.946" y="18.503" transform="matrix(-0.9987 0.0506 -0.0506 -0.9987 266.5729 53.8125)" clip-path="url(#SVGID_21_)" mask="url(#SVGID_22_)" fill="#FFFFFF" width="29.318" height="23.557"/>
	</g>
	<g>
		<defs>
			<path id="SVGID_24_" d="M141.141,43.502L141.141,43.502L141.141,43.502z M127.085,30.899c0.308-0.164,0.7-0.257,1.145-0.28
				c1.049-0.057,2.369,0.305,3.431,0.892c0.531,0.292,0.999,0.638,1.341,0.998c0.344,0.361,0.554,0.731,0.616,1.059
				c0.437,2.285,1.135,4.377,2.265,6.197c1.108,1.783,2.636,3.296,4.71,4.446c0.004,0.034,0.01,0.076,0.015,0.123
				c0.006,0.044,0.012,0.096,0.02,0.149c-0.849,1.043-1.836,2.127-2.66,3.354c-0.363,0.537-0.74,0.924-1.107,1.176
				c-0.367,0.252-0.721,0.371-1.06,0.389c-0.344,0.017-0.684-0.068-1.031-0.269c-0.346-0.201-0.695-0.521-1.022-0.968
				c-1.315-1.789-2.022-4.144-2.902-6.387c-0.23-0.58-0.656-1.151-1.194-1.706c-0.809-0.829-1.878-1.614-2.974-2.191
				c-1.099-0.574-2.209-0.955-3.174-0.911c-0.125,0.006-0.249,0.019-0.369,0.042c-0.999,0.197-2.209,0.781-3.487,1.486
				c-1.032,0.573-2.099,1.228-3.077,1.825l1.636-4.857C121.209,33.779,123.518,32.781,127.085,30.899 M128.184,29.734
				c-0.543,0.028-1.06,0.142-1.513,0.382c-3.593,1.896-5.928,2.899-9.052,4.66l-0.148,0.085l-1.988,5.905l0.242,0.525l0.207,0.453
				l0.424-0.259c1.154-0.699,2.473-1.524,3.717-2.214c1.241-0.69,2.424-1.241,3.227-1.393c0.076-0.014,0.157-0.024,0.245-0.028
				c0.454-0.025,1.065,0.102,1.716,0.354c0.979,0.375,2.056,1.021,2.941,1.742c0.887,0.72,1.58,1.534,1.816,2.154
				c0.868,2.191,1.577,4.619,3.014,6.585c0.384,0.523,0.816,0.935,1.291,1.209c0.475,0.276,0.996,0.416,1.52,0.388
				c0.521-0.025,1.037-0.213,1.518-0.544c0.479-0.329,0.928-0.802,1.339-1.411c0.812-1.214,1.838-2.326,2.739-3.45l0.134-0.162
				l-0.044-0.206c-0.03-0.136-0.042-0.281-0.062-0.43c-0.01-0.075-0.021-0.152-0.055-0.248c-0.018-0.046-0.039-0.1-0.08-0.161
				c-0.041-0.059-0.103-0.125-0.19-0.171l-0.21,0.389l-0.051,0.095l0.051-0.095l0.21-0.389c0-0.001-0.001-0.001-0.001-0.001h0.001
				c-2.01-1.09-3.451-2.509-4.508-4.206c-1.056-1.698-1.725-3.683-2.149-5.896c-0.107-0.557-0.422-1.057-0.842-1.501
				c-0.635-0.664-1.525-1.218-2.49-1.605c-0.882-0.351-1.825-0.566-2.71-0.566C128.355,29.728,128.269,29.729,128.184,29.734"/>
		</defs>
		<use xlink:href="#SVGID_24_"  overflow="visible" fill="#FFFFFF"/>
		<clipPath id="SVGID_25_">
			<use xlink:href="#SVGID_24_"  overflow="visible"/>
		</clipPath>
		<defs>
			<filter id="Adobe_OpacityMaskFilter_5_" filterUnits="userSpaceOnUse" x="114.443" y="28.409" width="28.17" height="23.223">
				<feColorMatrix  type="matrix" values="1 0 0 0 0  0 1 0 0 0  0 0 1 0 0  0 0 0 1 0"/>
			</filter>
		</defs>
		<mask maskUnits="userSpaceOnUse" x="114.443" y="28.409" width="28.17" height="23.223" id="SVGID_26_">
			<g filter="url(#Adobe_OpacityMaskFilter_5_)">
				
					<radialGradient id="SVGID_27_" cx="-59.3138" cy="203.3137" r="1" gradientTransform="matrix(11.7414 -0.5952 0.5952 11.7414 703.8132 -2382.2925)" gradientUnits="userSpaceOnUse">
					<stop  offset="0" style="stop-color:#000000"/>
					<stop  offset="0.1067" style="stop-color:#000000"/>
					<stop  offset="1" style="stop-color:#FFFFFF"/>
				</radialGradient>
				<polygon clip-path="url(#SVGID_25_)" fill="url(#SVGID_27_)" points="115.55,51.632 142.613,50.26 141.505,28.409 
					114.443,29.78 				"/>
			</g>
		</mask>
		
			<rect x="114.979" y="29.081" transform="matrix(-0.9987 0.0506 -0.0506 -0.9987 258.9175 73.4811)" clip-path="url(#SVGID_25_)" mask="url(#SVGID_26_)" fill="#FFFFFF" width="27.097" height="21.879"/>
	</g>
	<g>
		<defs>
			<path id="SVGID_28_" d="M123.781,42.022c1.105-0.055,2.158,0.235,3.062,0.841c0.903,0.609,1.661,1.537,2.156,2.781
				c1.061,2.67,2.382,5.21,3.828,8.301c-1.028,1.404-2.045,2.809-3.114,4.165c-0.583,0.737-1.195,1.062-1.732,1.087
				c-0.354,0.017-0.695-0.084-1.039-0.331c-0.34-0.245-0.675-0.644-0.956-1.211c-0.416-0.826-0.646-1.806-0.898-2.794
				c-0.368-1.426-0.976-2.566-1.771-3.377c-0.726-0.744-1.614-1.205-2.575-1.337l-2.535-5.552c0.811-0.451,1.614-0.924,2.39-1.448
				C121.647,42.437,122.738,42.076,123.781,42.022 M123.736,41.139c-1.216,0.061-2.466,0.483-3.637,1.276
				c-0.854,0.578-1.756,1.099-2.679,1.604l-0.36,0.198l3.089,6.764l0.261,0.021c0.843,0.064,1.611,0.428,2.273,1.102
				s1.209,1.67,1.547,2.979c0.252,0.968,0.484,2.01,0.964,2.969c0.333,0.664,0.746,1.182,1.23,1.531
				c0.481,0.351,1.039,0.526,1.603,0.496c0.865-0.045,1.696-0.552,2.382-1.423c1.13-1.434,2.196-2.91,3.267-4.373l0.003-0.005
				l0.023-0.033l0.145-0.209l-0.107-0.231c-1.497-3.219-2.854-5.81-3.918-8.489c-0.552-1.393-1.423-2.475-2.483-3.188
				c-0.976-0.657-2.111-1-3.291-1C123.944,41.13,123.839,41.134,123.736,41.139"/>
		</defs>
		<use xlink:href="#SVGID_28_"  overflow="visible" fill="#FFFFFF"/>
		<clipPath id="SVGID_29_">
			<use xlink:href="#SVGID_28_"  overflow="visible"/>
		</clipPath>
		<defs>
			<filter id="Adobe_OpacityMaskFilter_6_" filterUnits="userSpaceOnUse" x="116.101" y="40.282" width="18.705" height="20.678">
				<feColorMatrix  type="matrix" values="1 0 0 0 0  0 1 0 0 0  0 0 1 0 0  0 0 0 1 0"/>
			</filter>
		</defs>
		<mask maskUnits="userSpaceOnUse" x="116.101" y="40.282" width="18.705" height="20.678" id="SVGID_30_">
			<g filter="url(#Adobe_OpacityMaskFilter_6_)">
				
					<radialGradient id="SVGID_31_" cx="-59.5275" cy="203.3401" r="1.001" gradientTransform="matrix(8.8683 -0.4495 0.4495 8.8683 562.0377 -1779.4215)" gradientUnits="userSpaceOnUse">
					<stop  offset="0" style="stop-color:#000000"/>
					<stop  offset="0.1067" style="stop-color:#000000"/>
					<stop  offset="1" style="stop-color:#FFFFFF"/>
				</radialGradient>
				<polygon clip-path="url(#SVGID_29_)" fill="url(#SVGID_31_)" points="117.103,60.96 134.806,60.062 133.803,40.282 
					116.101,41.18 				"/>
			</g>
		</mask>
		
			<rect x="116.59" y="40.718" transform="matrix(-0.9987 0.0507 -0.0507 -0.9987 253.3099 94.8217)" clip-path="url(#SVGID_29_)" mask="url(#SVGID_30_)" fill="#FFFFFF" width="17.726" height="19.805"/>
	</g>
	<g>
		<defs>
			<polygon id="SVGID_32_" points="133.372,53.959 132.971,53.747 133.342,53.987 132.971,53.747 132.966,53.754 132.762,54.07 
				133.043,54.324 133.505,54.742 133.751,54.159 133.373,53.959 133.636,53.667 133.634,53.666 			"/>
		</defs>
		<use xlink:href="#SVGID_32_"  overflow="visible" fill="#FFFFFF"/>
		<clipPath id="SVGID_33_">
			<use xlink:href="#SVGID_32_"  overflow="visible"/>
		</clipPath>
		<defs>
			<filter id="Adobe_OpacityMaskFilter_7_" filterUnits="userSpaceOnUse" x="132.708" y="53.616" width="1.098" height="1.176">
				<feColorMatrix  type="matrix" values="1 0 0 0 0  0 1 0 0 0  0 0 1 0 0  0 0 0 1 0"/>
			</filter>
		</defs>
		<mask maskUnits="userSpaceOnUse" x="132.708" y="53.616" width="1.098" height="1.176" id="SVGID_34_">
			<g filter="url(#Adobe_OpacityMaskFilter_7_)">
				
					<radialGradient id="SVGID_35_" cx="-85.4749" cy="212.5373" r="1.0004" gradientTransform="matrix(0.3621 -0.0184 0.0184 0.3621 160.3795 -24.5382)" gradientUnits="userSpaceOnUse">
					<stop  offset="0" style="stop-color:#000000"/>
					<stop  offset="0.1067" style="stop-color:#000000"/>
					<stop  offset="1" style="stop-color:#FFFFFF"/>
				</radialGradient>
				<polygon clip-path="url(#SVGID_33_)" fill="url(#SVGID_35_)" points="132.765,54.792 133.805,54.739 133.748,53.616 
					132.708,53.668 				"/>
			</g>
		</mask>
		
			<rect x="132.736" y="53.641" transform="matrix(-0.9987 0.0506 -0.0506 -0.9987 269.0853 101.5944)" clip-path="url(#SVGID_33_)" mask="url(#SVGID_34_)" fill="#FFFFFF" width="1.041" height="1.125"/>
	</g>
	<g>
		<defs>
			<path id="SVGID_36_" d="M133.259,54.102l0.051-0.089L133.259,54.102z M133.134,53.848L133.134,53.848l-0.069,0.026
				L133.134,53.848z M133.457,53.276c-0.094,0.005-0.151,0.034-0.19,0.052c-0.071,0.04-0.092,0.067-0.11,0.086l-0.055,0.067
				l-0.071,0.129c-0.025,0.051-0.055,0.116-0.092,0.197l0.129,0.071c0.023,0.061,0.077,0.157,0.192,0.224l0.051-0.089l0.02-0.034
				l-0.02,0.034l-0.051,0.089c0.077,0.045,0.171,0.062,0.241,0.057c0.022-0.001,0.043-0.004,0.061-0.008l0.149,0.083
				c0.056-0.084,0.099-0.163,0.131-0.229l0.041-0.095l0.02-0.055l0.012-0.045c0.002-0.022,0.011-0.046,0.008-0.113
				c-0.005-0.042-0.004-0.102-0.062-0.206c-0.03-0.052-0.082-0.115-0.16-0.159c-0.069-0.04-0.15-0.058-0.217-0.058
				C133.473,53.274,133.464,53.274,133.457,53.276"/>
		</defs>
		<use xlink:href="#SVGID_36_"  overflow="visible" fill="#FFFFFF"/>
		<clipPath id="SVGID_37_">
			<use xlink:href="#SVGID_36_"  overflow="visible"/>
		</clipPath>
		<defs>
			<filter id="Adobe_OpacityMaskFilter_8_" filterUnits="userSpaceOnUse" x="132.89" y="53.226" width="1.083" height="1.058">
				<feColorMatrix  type="matrix" values="1 0 0 0 0  0 1 0 0 0  0 0 1 0 0  0 0 0 1 0"/>
			</filter>
		</defs>
		<mask maskUnits="userSpaceOnUse" x="132.89" y="53.226" width="1.083" height="1.058" id="SVGID_38_">
			<g filter="url(#Adobe_OpacityMaskFilter_8_)">
				
					<radialGradient id="SVGID_39_" cx="-77.9816" cy="209.8298" r="1.0002" gradientTransform="matrix(0.4888 -0.0248 0.0248 0.4888 166.344 -50.7366)" gradientUnits="userSpaceOnUse">
					<stop  offset="0" style="stop-color:#000000"/>
					<stop  offset="0.1067" style="stop-color:#000000"/>
					<stop  offset="1" style="stop-color:#FFFFFF"/>
				</radialGradient>
				<polygon clip-path="url(#SVGID_37_)" fill="url(#SVGID_39_)" points="132.941,54.283 133.973,54.231 133.922,53.226 
					132.89,53.277 				"/>
			</g>
		</mask>
		
			<rect x="132.915" y="53.251" transform="matrix(-0.9987 0.0505 -0.0505 -0.9987 269.4073 100.701)" clip-path="url(#SVGID_37_)" mask="url(#SVGID_38_)" fill="#FFFFFF" width="1.034" height="1.007"/>
	</g>
	<g>
		<defs>
			<path id="SVGID_40_" d="M124.999,75.749v-0.002V75.749z M123.52,72.391c0.207,1.169,0.42,2.333,0.604,3.495l-0.001-0.001
				l0.007,0.067c0.006,0.078-0.004,0.179-0.018,0.297l-0.102-0.009l-0.035,0.439c-0.048,0.607-0.092,1.21-0.146,1.807
				c-0.085,0.994-0.209,1.905-0.492,2.512c-0.142,0.305-0.312,0.528-0.528,0.686c-0.216,0.157-0.486,0.256-0.882,0.279
				c-0.424,0.022-0.99-0.06-1.712-0.297c-0.215-0.07-0.438-0.09-0.657-0.079c-0.298,0.017-0.597,0.085-0.892,0.184l3.077-9.16
				C122.314,72.533,122.918,72.48,123.52,72.391 M123.88,71.882l-0.435,0.078L123.88,71.882z M123.797,71.447
				c-0.764,0.146-1.614,0.197-2.457,0.33l-0.264,0.042l-3.919,11.663l0.977-0.515c0.516-0.275,1.076-0.481,1.469-0.497
				c0.138-0.007,0.251,0.007,0.336,0.035c0.792,0.258,1.457,0.371,2.032,0.341c0.533-0.026,0.994-0.181,1.36-0.447
				c0.549-0.402,0.853-1.008,1.042-1.668c0.188-0.664,0.27-1.407,0.338-2.166c0.042-0.46,0.077-0.918,0.112-1.377l0.081,0.006
				l0.034-0.438c0.015-0.216,0.091-0.503,0.074-0.851c-0.001-0.051-0.006-0.104-0.015-0.157v-0.001
				c-0.209-1.322-0.453-2.638-0.683-3.944l-0.077-0.442L123.797,71.447z"/>
		</defs>
		<use xlink:href="#SVGID_40_"  overflow="visible" fill="#FFFFFF"/>
		<clipPath id="SVGID_41_">
			<use xlink:href="#SVGID_40_"  overflow="visible"/>
		</clipPath>
		<defs>
			<filter id="Adobe_OpacityMaskFilter_9_" filterUnits="userSpaceOnUse" x="116.545" y="70.967" width="9.098" height="12.914">
				<feColorMatrix  type="matrix" values="1 0 0 0 0  0 1 0 0 0  0 0 1 0 0  0 0 0 1 0"/>
			</filter>
		</defs>
		<mask maskUnits="userSpaceOnUse" x="116.545" y="70.967" width="9.098" height="12.914" id="SVGID_42_">
			<g filter="url(#Adobe_OpacityMaskFilter_9_)">
				
					<radialGradient id="SVGID_43_" cx="-60.3366" cy="203.6882" r="1.0003" gradientTransform="matrix(5.0639 -0.2567 0.2567 5.0639 374.2253 -969.5347)" gradientUnits="userSpaceOnUse">
					<stop  offset="0" style="stop-color:#000000"/>
					<stop  offset="0.1067" style="stop-color:#000000"/>
					<stop  offset="1" style="stop-color:#FFFFFF"/>
				</radialGradient>
				<polygon clip-path="url(#SVGID_41_)" fill="url(#SVGID_43_)" points="117.177,83.881 125.642,83.452 125.009,70.967 
					116.545,71.396 				"/>
			</g>
		</mask>
		
			<rect x="116.855" y="71.174" transform="matrix(-0.9987 0.0506 -0.0506 -0.9987 245.952 148.6169)" clip-path="url(#SVGID_41_)" mask="url(#SVGID_42_)" fill="#FFFFFF" width="8.476" height="12.5"/>
	</g>
	<g>
		<defs>
			<path id="SVGID_44_" d="M119.541,84.921c-0.944,0.05-1.889,0.263-2.645,0.71v-0.001c-0.133,0.08-0.27,0.154-0.412,0.229
				l-0.154,0.083l-3.52,10.466l0.825-0.255c0.959-0.294,1.896-0.483,2.889-0.534c0.903-0.046,1.854,0.024,2.913,0.244
				c0.296,0.062,0.575,0.086,0.834,0.073c0.663-0.028,1.205-0.331,1.562-0.766c0.538-0.653,0.745-1.532,0.896-2.41
				c0.148-0.876,0.229-1.769,0.389-2.401c0.098-0.39,0.265-0.872,0.403-1.382c0.139-0.511,0.253-1.056,0.228-1.602
				c-0.022-0.492-0.176-0.999-0.549-1.413c-0.372-0.415-0.928-0.709-1.686-0.881l-0.099,0.43l-0.099,0.431
				c0.642,0.148,1.01,0.372,1.224,0.61c0.214,0.239,0.305,0.513,0.324,0.866c0.021,0.388-0.067,0.854-0.197,1.326
				c-0.129,0.475-0.295,0.952-0.408,1.399c-0.124,0.498-0.197,1.058-0.276,1.625c-0.114,0.849-0.249,1.716-0.521,2.323
				c-0.135,0.303-0.298,0.536-0.489,0.691c-0.192,0.154-0.415,0.25-0.746,0.27c-0.172,0.008-0.374-0.007-0.609-0.055
				c-1.125-0.235-2.157-0.313-3.138-0.263c-0.789,0.041-1.544,0.163-2.288,0.349l2.866-8.526c0.096-0.052,0.192-0.106,0.291-0.164
				h0.001c0.574-0.346,1.4-0.547,2.235-0.588c0.604-0.031,1.214,0.02,1.733,0.137l0.099-0.431l0.099-0.43
				c-0.493-0.112-1.032-0.17-1.58-0.17C119.803,84.912,119.672,84.916,119.541,84.921"/>
		</defs>
		<use xlink:href="#SVGID_44_"  overflow="visible" fill="#FFFFFF"/>
		<clipPath id="SVGID_45_">
			<use xlink:href="#SVGID_44_"  overflow="visible"/>
		</clipPath>
		<defs>
			<filter id="Adobe_OpacityMaskFilter_10_" filterUnits="userSpaceOnUse" x="112.229" y="84.358" width="12.127" height="12.604">
				<feColorMatrix  type="matrix" values="1 0 0 0 0  0 1 0 0 0  0 0 1 0 0  0 0 0 1 0"/>
			</filter>
		</defs>
		<mask maskUnits="userSpaceOnUse" x="112.229" y="84.358" width="12.127" height="12.604" id="SVGID_46_">
			<g filter="url(#Adobe_OpacityMaskFilter_10_)">
				
					<radialGradient id="SVGID_47_" cx="-60.1124" cy="203.506" r="1" gradientTransform="matrix(5.6213 -0.2849 0.2849 5.6213 398.1418 -1070.5286)" gradientUnits="userSpaceOnUse">
					<stop  offset="0" style="stop-color:#000000"/>
					<stop  offset="0.1067" style="stop-color:#000000"/>
					<stop  offset="1" style="stop-color:#FFFFFF"/>
				</radialGradient>
				<polygon clip-path="url(#SVGID_45_)" fill="url(#SVGID_47_)" points="112.838,96.963 124.356,96.379 123.747,84.358 
					112.229,84.942 				"/>
			</g>
		</mask>
		
			<rect x="112.526" y="84.643" transform="matrix(-0.9987 0.0506 -0.0506 -0.9987 241.0245 175.2146)" clip-path="url(#SVGID_45_)" mask="url(#SVGID_46_)" fill="#FFFFFF" width="11.532" height="12.036"/>
	</g>
	<g>
		<defs>
			<path id="SVGID_48_" d="M116.32,97.554c-1.08,0.056-2.161,0.49-3.087,0.913c-0.375,0.172-0.737,0.322-1.09,0.45l-0.199,0.071
				l-3.83,11.395l0.444,0.128c0.463,0.134,0.949,0.189,1.452,0.162c0.912-0.046,1.875-0.349,2.906-0.895
				c1.823-0.963,3.24-2.265,4.352-3.779c1.113-1.515,1.928-3.241,2.568-5.066c0.157-0.449,0.225-0.848,0.207-1.216
				c-0.02-0.416-0.162-0.784-0.384-1.067c-0.337-0.43-0.815-0.665-1.297-0.816c-0.485-0.151-0.99-0.221-1.434-0.267l-0.046,0.44
				l-0.046,0.439c0.559,0.059,1.182,0.159,1.62,0.369c0.22,0.105,0.39,0.231,0.503,0.377c0.113,0.148,0.185,0.317,0.199,0.569
				c0.011,0.222-0.029,0.512-0.158,0.878c-0.62,1.769-1.401,3.414-2.446,4.836c-1.046,1.42-2.353,2.623-4.054,3.522
				c-0.949,0.502-1.791,0.755-2.535,0.792c-0.246,0.013-0.48,0.002-0.709-0.03l3.389-10.085c0.312-0.119,0.632-0.253,0.958-0.404
				c0.886-0.411,1.892-0.792,2.761-0.834c0.163-0.009,0.321-0.004,0.473,0.009l0.046-0.439l0.046-0.441
				c-0.131-0.012-0.262-0.019-0.394-0.019C116.463,97.548,116.391,97.55,116.32,97.554"/>
		</defs>
		<use xlink:href="#SVGID_48_"  overflow="visible" fill="#FFFFFF"/>
		<clipPath id="SVGID_49_">
			<use xlink:href="#SVGID_48_"  overflow="visible"/>
		</clipPath>
		<defs>
			<filter id="Adobe_OpacityMaskFilter_11_" filterUnits="userSpaceOnUse" x="107.449" y="96.943" width="13.277" height="14.362">
				<feColorMatrix  type="matrix" values="1 0 0 0 0  0 1 0 0 0  0 0 1 0 0  0 0 0 1 0"/>
			</filter>
		</defs>
		<mask maskUnits="userSpaceOnUse" x="107.449" y="96.943" width="13.277" height="14.362" id="SVGID_50_">
			<g filter="url(#Adobe_OpacityMaskFilter_11_)">
				
					<radialGradient id="SVGID_51_" cx="-59.9328" cy="203.4326" r="1.0006" gradientTransform="matrix(6.3021 -0.3194 0.3194 6.3021 426.7491 -1197.1296)" gradientUnits="userSpaceOnUse">
					<stop  offset="0" style="stop-color:#000000"/>
					<stop  offset="0.1067" style="stop-color:#000000"/>
					<stop  offset="1" style="stop-color:#FFFFFF"/>
				</radialGradient>
				<polygon clip-path="url(#SVGID_49_)" fill="url(#SVGID_51_)" points="108.144,111.305 120.726,110.668 120.031,96.943 
					107.449,97.582 				"/>
			</g>
		</mask>
		
			<rect x="107.788" y="97.252" transform="matrix(-0.9987 0.0505 -0.0505 -0.9987 233.2915 202.3486)" clip-path="url(#SVGID_49_)" mask="url(#SVGID_50_)" fill="#FFFFFF" width="12.598" height="13.743"/>
	</g>
	<g>
		<defs>
			<path id="SVGID_52_" d="M157.968,10.446c-0.023,0.624-0.126,1.242-0.191,1.862c-0.105,0.616-0.193,1.231-0.339,1.84
				c-0.259,1.219-0.61,2.418-1.019,3.598c-0.393,1.185-0.863,2.343-1.355,3.494c-0.251,0.573-0.503,1.147-0.771,1.714
				c-0.13,0.281-0.266,0.564-0.402,0.876c-0.131,0.305-0.25,0.613-0.356,0.922c-0.437,1.241-0.713,2.447-1.145,3.614
				c-0.397,1.186-0.844,2.354-1.299,3.518c-1.878,4.639-4.175,9.103-6.723,13.428c-2.531,4.345-5.279,8.546-8.029,12.814
				c-1.367,2.204-2.505,4.538-3.428,6.944c-0.914,2.407-1.649,4.872-2.242,7.355c-0.585,2.486-1.052,4.988-1.485,7.481
				c-0.427,2.505-0.844,4.966-1.326,7.445c-0.474,2.474-1.001,4.94-1.506,7.415l-0.759,3.713c-0.248,1.208-0.598,2.396-1.059,3.538
				c-0.906,2.292-2.313,4.385-4.104,6.121c-0.896,0.866-1.886,1.638-2.935,2.327c-0.519,0.371-1.072,0.632-1.604,1.017
				c-0.493,0.409-0.944,0.843-1.433,1.247c0.514-0.366,1.008-0.771,1.516-1.133c0.519-0.318,1.13-0.56,1.669-0.889
				c1.107-0.623,2.163-1.352,3.14-2.182c1.947-1.668,3.523-3.791,4.602-6.144c0.538-1.177,0.953-2.409,1.264-3.665l0.908-3.68
				c0.606-2.451,1.185-4.914,1.739-7.387c0.277-1.237,0.544-2.476,0.798-3.719c0.253-1.246,0.475-2.492,0.714-3.729
				c0.476-2.471,0.979-4.931,1.593-7.354c0.619-2.419,1.327-4.805,2.227-7.115c0.898-2.307,2.001-4.525,3.307-6.608
				c2.69-4.245,5.47-8.507,7.976-12.926c2.488-4.429,4.794-8.994,6.547-13.792c0.431-1.201,0.852-2.405,1.221-3.625
				c0.409-1.217,0.672-2.489,1.023-3.647c0.176-0.596,0.39-1.112,0.645-1.717c0.25-0.586,0.484-1.178,0.716-1.773
				c0.452-1.192,0.889-2.391,1.236-3.623c0.355-1.228,0.655-2.476,0.853-3.739c0.118-0.63,0.176-1.268,0.252-1.904
				c0.037-0.638,0.101-1.276,0.084-1.916c0.022-1.277-0.101-2.554-0.311-3.807l-0.184-0.935L157.753,4.8l-0.121-0.459L157.48,3.89
				l-0.302-0.898C157.859,5.425,158.15,7.952,157.968,10.446"/>
		</defs>
		<use xlink:href="#SVGID_52_"  overflow="visible" fill="#FFFFFF"/>
		<clipPath id="SVGID_53_">
			<use xlink:href="#SVGID_52_"  overflow="visible"/>
		</clipPath>
		<defs>
			<filter id="Adobe_OpacityMaskFilter_12_" filterUnits="userSpaceOnUse" x="108.909" y="0.764" width="55.147" height="114.194">
				<feColorMatrix  type="matrix" values="1 0 0 0 0  0 1 0 0 0  0 0 1 0 0  0 0 0 1 0"/>
			</filter>
		</defs>
		<mask maskUnits="userSpaceOnUse" x="108.909" y="0.764" width="55.147" height="114.194" id="SVGID_54_">
			<g filter="url(#Adobe_OpacityMaskFilter_12_)">
				
					<radialGradient id="SVGID_55_" cx="-58.7175" cy="202.9293" r="1.0003" gradientTransform="matrix(41.723 -2.1149 -2.1149 -41.723 3015.3665 8400.5039)" gradientUnits="userSpaceOnUse">
					<stop  offset="0" style="stop-color:#000000"/>
					<stop  offset="0.1067" style="stop-color:#000000"/>
					<stop  offset="1" style="stop-color:#FFFFFF"/>
				</radialGradient>
				<polygon clip-path="url(#SVGID_53_)" fill="url(#SVGID_55_)" points="108.909,3.273 158.395,0.764 164.056,112.449 
					114.57,114.957 				"/>
			</g>
		</mask>
		
			<rect x="111.708" y="1.946" transform="matrix(-0.9987 0.0506 -0.0506 -0.9987 275.7196 108.7366)" clip-path="url(#SVGID_53_)" mask="url(#SVGID_54_)" fill="#FFFFFF" width="49.55" height="111.828"/>
	</g>
	<path fill="#FFFFFF" d="M113.728,74.089c-0.16-0.207-0.379-0.312-0.656-0.312h-6.426c-0.645,0-1.012,0.325-1.105,0.969
		l-2.619,8.978l-2.619-8.978c-0.094-0.644-0.461-0.969-1.105-0.969h-6.426c-0.276,0-0.496,0.105-0.656,0.312
		c-0.161,0.207-0.197,0.427-0.104,0.657l6.765,23.191l-6.777,23.242c-0.14,0.645,0.114,0.966,0.759,0.966h6.426
		c0.647,0,1.014-0.321,1.106-0.966l13.543-46.433C113.925,74.516,113.89,74.296,113.728,74.089"/>
	<path fill="#FFFFFF" d="M40.803,19.318v6.149c0,0.646-0.321,0.968-0.967,0.968H31.96v9.949h6.84c0.646,0,0.968,0.324,0.968,0.968
		v6.15c0,0.645-0.322,0.965-0.968,0.965h-6.84v21.283c0,0.646-0.323,0.967-0.968,0.967h-6.149c-0.646,0-0.967-0.321-0.967-0.967
		V19.318c0-0.646,0.321-0.969,0.967-0.969h14.994C40.482,18.35,40.803,18.673,40.803,19.318"/>
	<path fill="#FFFFFF" d="M63.329,59.601v6.149c0,0.647-0.323,0.968-0.968,0.968h-9.328h-0.139h-0.068h-6.148
		c-0.647,0-0.969-0.321-0.969-0.968V19.318c0-0.646,0.322-0.968,0.969-0.968h6.148c0.645,0,0.969,0.323,0.969,0.968v39.314h8.566
		C63.005,58.633,63.329,58.955,63.329,59.601"/>
	<path fill="#FFFFFF" d="M84.47,59.601v6.149c0,0.647-0.322,0.968-0.967,0.968H68.509c-0.645,0-0.967-0.321-0.967-0.968V19.318
		c0-0.646,0.322-0.968,0.967-0.968h14.994c0.645,0,0.967,0.323,0.967,0.968v6.149c0,0.646-0.322,0.968-0.967,0.968h-7.877v9.949
		h6.84c0.646,0,0.968,0.324,0.968,0.968v6.149c0,0.646-0.322,0.966-0.968,0.966h-6.84v14.165h7.877
		C84.148,58.633,84.47,58.955,84.47,59.601"/>
	<path fill="#FFFFFF" d="M45.458,73.985c1.06,0.461,1.979,1.083,2.765,1.866c0.781,0.784,1.403,1.705,1.864,2.763
		c0.46,1.06,0.691,2.189,0.691,3.387v5.526c0,0.646-0.3,1.061-0.897,1.245l-6.289,0.967c-0.599,0.184-0.897-0.046-0.897-0.691
		v-6.702c0-0.46-0.162-0.852-0.484-1.175c-0.321-0.321-0.715-0.483-1.175-0.483h-0.553c-0.461,0-0.852,0.162-1.174,0.483
		c-0.323,0.323-0.484,0.715-0.484,1.175v31.231c0,0.46,0.161,0.853,0.484,1.174c0.322,0.323,0.713,0.483,1.174,0.483h0.553
		c0.46,0,0.854-0.16,1.175-0.483c0.322-0.322,0.484-0.714,0.484-1.174v-9.675c0-0.645,0.299-0.874,0.897-0.691l6.289,0.831
		c0.598,0.185,0.897,0.599,0.897,1.243v8.637c0,1.198-0.231,2.327-0.691,3.385c-0.461,1.061-1.083,1.982-1.864,2.763
		c-0.785,0.785-1.705,1.407-2.765,1.867c-1.062,0.46-2.189,0.69-3.386,0.69h-2.626c-1.198,0-2.326-0.23-3.386-0.69
		c-1.059-0.46-1.98-1.081-2.764-1.867c-0.783-0.781-1.404-1.702-1.865-2.763c-0.461-1.058-0.691-2.187-0.691-3.385V82.001
		c0-1.197,0.23-2.327,0.691-3.387c0.461-1.058,1.082-1.979,1.865-2.763c0.783-0.783,1.704-1.405,2.764-1.866
		c1.06-0.459,2.188-0.69,3.386-0.69h2.626C43.269,73.295,44.396,73.526,45.458,73.985"/>
	<path fill="#FFFFFF" d="M63.422,121.177c0,0.645-0.322,0.967-0.967,0.967h-6.148c-0.646,0-0.969-0.323-0.969-0.967V74.746
		c0-0.644,0.322-0.969,0.969-0.969h6.148c0.645,0,0.967,0.325,0.967,0.969V121.177z"/>
	<path fill="#FFFFFF" d="M87.397,74.746v6.149c0,0.645-0.323,0.967-0.968,0.967h-4.905v39.315c0,0.646-0.323,0.967-0.968,0.967
		h-6.149c-0.231,0-0.448-0.091-0.655-0.276c-0.209-0.184-0.312-0.415-0.312-0.691V81.862h-4.836c-0.645,0-0.968-0.322-0.968-0.967
		v-6.149c0-0.646,0.323-0.969,0.968-0.969h17.826C87.074,73.777,87.397,74.1,87.397,74.746"/>
	<path fill="#FFFFFF" d="M113.845,52.75l-4.883-16.741l4.869-16.691c0.094-0.23,0.059-0.449-0.104-0.656
		c-0.16-0.208-0.379-0.311-0.655-0.311h-6.427c-0.645,0-1.012,0.322-1.105,0.967l-0.724,2.478l-4.515-15.478
		c-0.094-0.645-0.461-0.967-1.104-0.967h-6.427c-0.277,0-0.496,0.103-0.655,0.311c-0.163,0.207-0.198,0.426-0.104,0.656l8.66,29.691
		l-8.674,29.741c-0.139,0.646,0.116,0.967,0.76,0.967h6.426c0.646,0,1.015-0.321,1.105-0.967l4.528-15.528l0.737,2.528
		c0.092,0.646,0.459,0.967,1.105,0.967h6.426C113.73,53.717,113.984,53.396,113.845,52.75"/>
	<path fill="#FFFFFF" d="M14.499,89.932c0,0.219-0.108,0.328-0.327,0.328h-2.078c-0.218,0-0.326-0.108-0.326-0.328V74.244
		c0-0.217,0.108-0.326,0.326-0.326h2.078c0.219,0,0.327,0.109,0.327,0.326V89.932z"/>
	<path fill="#FFFFFF" d="M23.86,74.244v15.688c0,0.22-0.108,0.328-0.327,0.328h-1.494c-0.093,0-0.183-0.031-0.268-0.094
		c-0.086-0.062-0.144-0.132-0.175-0.21l-2.475-7.727v7.703c0,0.22-0.109,0.328-0.326,0.328h-2.08c-0.217,0-0.325-0.108-0.325-0.328
		V74.244c0-0.217,0.108-0.326,0.325-0.326h1.541c0.095,0,0.184,0.031,0.27,0.092c0.086,0.062,0.145,0.133,0.176,0.21l2.428,7.495
		v-7.471c0-0.217,0.108-0.326,0.326-0.326h2.078C23.752,73.918,23.86,74.026,23.86,74.244"/>
	<path fill="#FFFFFF" d="M7.938,94.121v2.079c0,0.217-0.108,0.327-0.327,0.327H5.955v13.281c0,0.219-0.11,0.328-0.328,0.328H3.548
		c-0.077,0-0.151-0.031-0.221-0.093c-0.07-0.062-0.105-0.14-0.105-0.235V96.526H1.588c-0.217,0-0.326-0.11-0.326-0.327v-2.079
		c0-0.218,0.109-0.326,0.326-0.326h6.023C7.83,93.795,7.938,93.903,7.938,94.121"/>
	<path fill="#FFFFFF" d="M16.366,94.121v15.687c0,0.219-0.108,0.328-0.327,0.328h-2.078c-0.218,0-0.326-0.109-0.326-0.328v-6.676
		h-1.541v6.676c0,0.219-0.109,0.328-0.328,0.328H9.688c-0.218,0-0.326-0.109-0.326-0.328V94.121c0-0.218,0.108-0.326,0.326-0.326
		h2.077c0.219,0,0.328,0.108,0.328,0.326v6.28h1.541v-6.28c0-0.218,0.108-0.326,0.326-0.326h2.078
		C16.257,93.795,16.366,93.903,16.366,94.121"/>
	<path fill="#FFFFFF" d="M23.977,107.732v2.078c0,0.217-0.108,0.326-0.327,0.326h-5.066c-0.217,0-0.326-0.109-0.326-0.326V94.121
		c0-0.218,0.109-0.327,0.326-0.327h5.066c0.219,0,0.327,0.109,0.327,0.327v2.079c0,0.217-0.108,0.327-0.327,0.327h-2.66v3.361H23.3
		c0.218,0,0.326,0.109,0.326,0.327v2.078c0,0.218-0.108,0.326-0.326,0.326H20.99v4.786h2.66
		C23.869,107.404,23.977,107.514,23.977,107.732"/>
</g>
</svg>
